<?xml version="1.0" encoding="utf-8"?>
<!-- Generator: Adobe Illustrator 27.2.0, SVG Export Plug-In . SVG Version: 6.00 Build 0)  -->
<svg version="1.1" id="_Слой_2" xmlns="http://www.w3.org/2000/svg" xmlns:xlink="http://www.w3.org/1999/xlink" x="0px"
	 y="0px" viewBox="0 0 99.2 100.2" style="enable-background:new 0 0 99.2 100.2;" xml:space="preserve">
<style type="text/css">
	.st0{fill:#FFFFFF;}
</style>
<g id="_Слой_1-2">
	<g id="Layer_1">
		<g>
			<g>
				<path class="st0" d="M10.2,71.3c-0.1-0.4-0.2-0.7-0.3-1.1c-0.5-1.2-0.9-1.4-2.7-1.4H4.7c-0.7,0-0.7,0.1-0.7,0.7v5.7h3.2
					c1.8,0,1.9-0.2,2.3-1.8h0.3v4.4H9.5c-0.4-1.7-0.6-1.9-2.3-1.9H4v4.9c0,1.9,0.1,2.1,2.3,2.4v0.3H0.2v-0.3
					c1.9-0.2,2.1-0.5,2.1-2.4v-10c0-1.9-0.2-2.1-2.1-2.4v-0.3h7.1c2.2,0,2.9,0,3.1-0.1c0,0.6,0.1,2.3,0.1,3.1L10.2,71.3z"/>
				<path class="st0" d="M23.4,80c-0.1,0.7-0.6,2.7-0.9,3.6H11.9v-0.3c2.1-0.3,2.3-0.5,2.3-2.4v-10c0-1.9-0.2-2.1-2.1-2.3v-0.3h5.8
					v0.3c-1.8,0.3-1.9,0.4-1.9,2.3v10.3c0,1.7,0.3,1.7,1.9,1.7c0.5,0,1.2,0,1.6,0c1.4,0,2,0,2.6-0.9c0.4-0.6,0.8-1.2,1.1-2.1
					C23.1,79.9,23.4,80,23.4,80z"/>
				<path class="st0" d="M34,83.5v-0.3c1.3-0.2,1.7-0.4,1.4-1.3c-0.3-1-0.9-2.7-1.6-4.7h-4.8c-0.5,1.5-1,2.7-1.4,3.8
					c-0.5,1.6-0.2,1.8,1.7,2.1v0.3h-5v-0.3c1.4-0.2,1.8-0.4,2.6-2.6l5-12.7l0.3-0.1c1.5,4.3,3.1,8.6,4.7,13c0.8,2.1,1,2.1,2.5,2.4
					v0.3L34,83.5L34,83.5z M31.4,70.6c-0.8,2-1.5,4.1-2.2,6h4.4C33.5,76.6,31.4,70.6,31.4,70.6z"/>
				<path class="st0" d="M52.2,68.5c-1.6,0.3-1.8,0.6-2.7,2.6c-0.8,1.8-3.3,8.2-5.1,12.8H44c-1.6-4.4-3.2-8.8-4.8-13.1
					c-0.7-1.8-1-2-2.6-2.3v-0.3h5.6v0.3c-1.6,0.3-1.8,0.6-1.5,1.5c0.6,1.8,3.5,9.5,4.1,11.1c1-2.4,2.8-7.4,4-10.4
					c0.5-1.4,0.5-1.8-1.7-2.1v-0.3h5V68.5z"/>
				<path class="st0" d="M60.5,67.9c4,0,7.6,3.2,7.6,7.8c0,4.9-3.5,8.2-7.8,8.2s-7.6-3.4-7.6-7.8C52.6,71.8,55.6,67.9,60.5,67.9z
					 M60,68.4c-2.8,0-5.3,2.4-5.3,7s2.5,7.9,6.1,7.9c2.8,0,5.2-2.4,5.2-7C66,71.3,63.5,68.4,60,68.4z"/>
				<path class="st0" d="M84.1,83.7c-0.2,0-0.8,0-0.9,0c-2-0.1-2.5-0.3-3.5-1.6c-0.8-1.1-1.9-3-2.8-4.4c-0.6-1-0.9-1.2-2.1-1.2h-1
					v4.5c0,1.8,0.2,2.1,2.1,2.3v0.3h-5.9v-0.3c1.9-0.3,2.1-0.5,2.1-2.3V70.8c0-1.8-0.2-2-2.1-2.3v-0.3h5.8c1.6,0,2.9,0.3,3.8,0.9
					c0.9,0.6,1.5,1.6,1.5,2.9c0,1.9-1.3,3.3-3.1,4c0.5,0.8,1.6,2.6,2.3,3.7c0.8,1.2,1.4,2.1,2,2.7c0.6,0.6,1,0.8,2,1L84.1,83.7
					L84.1,83.7z M75.2,76c1.2,0,1.9-0.1,2.6-0.5c1-0.7,1.3-1.6,1.3-3c0-2.6-1.4-3.7-3.5-3.7c-0.9,0-1.3,0.1-1.5,0.2
					c-0.2,0.1-0.3,0.3-0.3,1.1v6C73.7,76,75.2,76,75.2,76z"/>
				<path class="st0" d="M93.8,83.5v-0.3c1.3-0.2,1.7-0.4,1.4-1.3c-0.3-1-0.9-2.7-1.6-4.7h-4.8c-0.5,1.5-1,2.7-1.3,3.8
					c-0.5,1.6-0.2,1.8,1.7,2.1v0.3h-5v-0.3c1.3-0.2,1.8-0.4,2.7-2.6l5-12.7l0.3-0.1c1.5,4.3,3.1,8.6,4.7,13c0.7,2.1,1,2.1,2.6,2.4
					v0.3L93.8,83.5L93.8,83.5z M91.2,70.6c-0.8,2-1.5,4.1-2.2,6h4.4L91.2,70.6z"/>
			</g>
			<g>
				<path class="st0" d="M0,95.9l0.9-0.6c0.3,0.3,0.7,0.4,1.2,0.4c0.6,0,0.9-0.2,0.9-0.7c0-0.2-0.3-0.6-0.8-1.1l-0.4-0.3
					C1.3,93.3,1,93,1,92.7c0-0.4,0.2-0.7,0.6-1s0.9-0.4,1.5-0.4c0.3,0,0.7,0.1,1.1,0.2l-0.7,0.5c-0.3-0.2-0.7-0.3-1-0.3
					c-0.5,0-0.7,0.2-0.7,0.4c0,0.2,0.2,0.5,0.8,0.9l0.4,0.3c0.6,0.5,0.8,0.8,0.8,1.1c0,0.4-0.2,0.8-0.8,1.1
					c-0.5,0.3-1.1,0.5-1.7,0.5C0.8,96.2,0.4,96.1,0,95.9z"/>
				<path class="st0" d="M8.5,96.2c-0.9,0-1.4-0.5-1.4-1.5c0-0.8,0.4-1.5,1.1-2.3c0.7-0.7,1.5-1.1,2.2-1.1c0.9,0,1.4,0.5,1.4,1.5
					c0,0.8-0.4,1.5-1.1,2.3C10.1,95.8,9.3,96.2,8.5,96.2z M9.3,95.7c0.5,0,0.9-0.2,1.2-0.6s0.5-0.9,0.5-1.6c0-1-0.4-1.5-1.2-1.5
					c-0.5,0-0.9,0.2-1.2,0.6s-0.5,0.9-0.5,1.6C8.1,95.1,8.5,95.7,9.3,95.7z"/>
				<path class="st0" d="M19.3,94.2c-0.5,0.6-1,1.1-1.6,1.5s-1.1,0.6-1.4,0.6c-0.4,0-0.6-0.2-0.6-0.7c0-0.2,0-0.4,0.1-0.8l0.2-1.6
					c0,0,0-0.1,0-0.3l0-0.3c0-0.1,0-0.2,0-0.2c0-0.2-0.1-0.3-0.2-0.3c-0.3,0-0.6,0.3-1,0.8c-0.1-0.1-0.1-0.1-0.1-0.2
					c0-0.2,0.2-0.5,0.7-0.8c0.4-0.3,0.8-0.5,1.1-0.5c0.3,0,0.5,0.2,0.5,0.6c0,0.1,0,0.2,0,0.3l-0.1,0.4l0,0.4l-0.2,1.4
					c0,0.2,0,0.5,0,0.7c0,0.2,0.1,0.3,0.3,0.3c0.5,0,1-0.3,1.6-0.9s0.9-1.2,1-1.8l0.2-1.2l1-0.3c-0.1,0.4-0.2,0.7-0.3,1l-0.4,2.1
					c0,0.1,0,0.2,0,0.3l0,0.3c0,0.2,0,0.3,0,0.3c0,0.1,0,0.2,0.1,0.2c0.4,0,0.7-0.3,1.1-0.9c0.1,0.1,0.2,0.1,0.2,0.2
					c0,0.1-0.2,0.3-0.5,0.7c-0.5,0.5-0.9,0.7-1.3,0.7c-0.3,0-0.5-0.2-0.5-0.5c0-0.1,0-0.2,0-0.4l0.1-0.4c0-0.2,0.1-0.4,0.1-0.4
					L19.3,94.2L19.3,94.2z"/>
				<path class="st0" d="M26.7,94.6c0.1,0.1,0.2,0.1,0.2,0.2c0,0.2-0.2,0.5-0.7,0.9c-0.4,0.3-0.8,0.5-1.1,0.5
					c-0.3,0-0.5-0.2-0.5-0.6c0-0.2,0-0.5,0.1-0.7l0.1-0.4l0.5-3.4c0.1-1,0.6-1.9,1.4-2.6c0.8-0.7,1.6-1,2.6-1c0.2,0,0.4,0,0.6,0.1
					l-0.9,0.7c-0.2-0.1-0.4-0.1-0.7-0.1c-0.6,0-1.1,0.2-1.4,0.5c-0.3,0.3-0.5,0.9-0.6,1.8l-0.6,4.1c0,0.3-0.1,0.5-0.1,0.7
					c0,0.3,0.1,0.4,0.2,0.4c0.1,0,0.3-0.1,0.5-0.3C26.5,95.1,26.6,94.9,26.7,94.6z"/>
				<path class="st0" d="M37,96.2c-0.9,0-1.4-0.5-1.4-1.5c0-0.8,0.4-1.5,1.1-2.3c0.7-0.7,1.5-1.1,2.2-1.1c0.9,0,1.4,0.5,1.4,1.5
					c0,0.8-0.4,1.5-1.1,2.3C38.5,95.8,37.8,96.2,37,96.2z M37.7,95.7c0.5,0,0.9-0.2,1.2-0.6s0.5-0.9,0.5-1.6c0-1-0.4-1.5-1.2-1.5
					c-0.5,0-0.9,0.2-1.2,0.6s-0.5,0.9-0.5,1.6C36.5,95.1,37,95.7,37.7,95.7z"/>
				<path class="st0" d="M45.3,92.1l-0.5,4c-0.1,0.9-0.3,1.6-0.5,2.1s-0.6,0.9-1.1,1.3c-0.8,0.6-1.6,0.8-2.6,0.8
					c-0.2,0-0.4,0-0.7-0.1l0.8-0.6c0.3,0.1,0.7,0.1,1,0.1c1.2,0,1.9-0.7,2.1-2.2l0.2-1.2l0.5-4.1h-1.1l0.7-0.6h0.5l0-0.3
					c0.2-1.2,0.6-2.2,1.3-2.8c0.7-0.7,1.7-1,2.8-1c0.2,0,0.5,0,0.7,0.1l-0.9,0.7C48.2,88,47.9,88,47.6,88c-0.7,0-1.2,0.2-1.5,0.6
					s-0.5,1.1-0.7,2.2l-0.1,0.7h2.5l-0.7,0.6H45.3z"/>
				<path class="st0" d="M59.4,91.5l0.1-0.4c0.2-1.1,0.6-1.9,1.3-2.6s1.6-1,2.6-1c0.2,0,0.4,0,0.6,0.1l-0.9,0.7
					c-0.2-0.1-0.4-0.1-0.7-0.1c-0.6,0-1.1,0.2-1.4,0.5c-0.3,0.3-0.5,0.9-0.6,1.8l-0.6,4.1l0,0.3c0,0.3-0.1,0.5-0.1,0.6
					c0,0.2,0,0.2,0.2,0.2c0.3,0,0.7-0.3,1-0.9c0.1,0.1,0.2,0.1,0.2,0.2c0,0.1-0.2,0.3-0.5,0.7c-0.5,0.5-0.9,0.7-1.3,0.7
					c-0.3,0-0.5-0.2-0.5-0.5c0-0.1,0-0.4,0.1-0.8l0.1-0.4l0-0.4c-0.3,0.5-0.7,1-1.4,1.4c-0.6,0.4-1.1,0.7-1.5,0.7
					c-0.6,0-0.9-0.4-0.9-1.1c0-0.9,0.4-1.8,1.2-2.5s1.7-1.1,2.7-1.1C59.2,91.4,59.3,91.4,59.4,91.5L59.4,91.5z M59.3,92.2
					c-0.3-0.2-0.7-0.2-1-0.2c-0.6,0-1.1,0.3-1.5,0.8c-0.4,0.6-0.6,1.2-0.6,2.1c0,0.4,0.2,0.6,0.5,0.6c0.4,0,0.8-0.2,1.3-0.7
					c0.7-0.6,1-1.3,1.2-2.1C59.3,92.7,59.3,92.2,59.3,92.2z"/>
				<path class="st0" d="M66.1,93.4c0.9-1.4,1.8-2.1,2.7-2.1c0.2,0,0.5,0,0.7,0.1l-0.9,0.8c-0.1-0.1-0.3-0.1-0.5-0.1
					c-0.4,0-0.9,0.3-1.3,0.8s-0.8,1.1-0.8,1.7l-0.2,1.2l-0.9,0.2l0-0.2l0-0.3l0.1-0.3l0.3-2.3l0-0.2c0-0.2,0-0.3,0-0.5
					c0-0.2-0.1-0.3-0.2-0.3c-0.3,0-0.7,0.3-1,0.8c-0.1-0.1-0.2-0.1-0.2-0.2c0-0.2,0.2-0.5,0.7-0.8s0.8-0.5,1.1-0.5
					c0.3,0,0.5,0.2,0.5,0.6c0,0.1,0,0.2,0,0.4l0,0.3l-0.1,0.4L66.1,93.4z"/>
				<path class="st0" d="M74.6,94.7c0.1,0.1,0.2,0.1,0.2,0.2c0,0.1-0.2,0.3-0.5,0.7c-0.5,0.5-0.9,0.7-1.3,0.7
					c-0.3,0-0.4-0.2-0.4-0.5c0-0.1,0.1-0.6,0.2-1.2l0.2-1.3l0.1-0.3l0.1-0.3c0-0.1,0-0.2,0-0.3c0-0.2-0.1-0.2-0.2-0.2
					c-0.3,0-0.7,0.3-1,0.8c-0.1-0.1-0.1-0.1-0.1-0.2c0-0.2,0.2-0.5,0.7-0.8c0.5-0.3,0.8-0.5,1.1-0.5c0.3,0,0.5,0.2,0.5,0.5
					c0,0.1,0,0.2-0.1,0.4l-0.1,0.3c0,0,0,0.2-0.1,0.4l-0.2,1.4l-0.1,0.3c-0.1,0.3-0.1,0.5-0.1,0.6c0,0.1,0.1,0.2,0.2,0.2
					C73.9,95.6,74.2,95.3,74.6,94.7z M73.4,90.8l0.5-1c0.5-0.2,0.8-0.4,1.1-0.6c0,0.1,0.1,0.1,0.1,0.1
					C75.1,89.7,74.5,90.2,73.4,90.8z"/>
				<path class="st0" d="M79.3,95.9l-0.9,0.3l0-0.1l0.1-0.4l0.1-0.3l0.3-2.3l0-0.3c0-0.2,0-0.4,0-0.5c0-0.2-0.1-0.3-0.2-0.3
					c-0.3,0-0.6,0.3-1,0.8c-0.1-0.1-0.1-0.1-0.1-0.2c0-0.2,0.2-0.5,0.7-0.8c0.4-0.3,0.8-0.5,1.1-0.5c0.3,0,0.5,0.2,0.5,0.5
					c0,0.1,0,0.2,0,0.4l-0.1,0.4L79.7,93l-0.1,0.3c0.5-0.6,1-1.1,1.6-1.4c0.6-0.4,1.1-0.6,1.5-0.6s0.6,0.2,0.6,0.7
					c0,0.1,0,0.3-0.1,0.6l-0.3,1.8c-0.1,0.4-0.1,0.7-0.1,0.9c0,0.2,0.1,0.2,0.2,0.2c0.3,0,0.6-0.3,1.1-0.9c0.1,0.1,0.2,0.1,0.2,0.2
					c0,0.2-0.2,0.5-0.7,0.8s-0.8,0.5-1.1,0.5c-0.3,0-0.5-0.2-0.5-0.6c0-0.3,0-0.6,0.1-1.1l0.2-1.2c0.1-0.4,0.1-0.7,0.1-0.9
					c0-0.3-0.1-0.4-0.3-0.4c-0.5,0-1.1,0.3-1.6,0.8s-0.9,1.2-0.9,1.8L79.3,95.9L79.3,95.9z"/>
				<path class="st0" d="M88.7,93c0.3-0.5,0.7-0.8,1.2-1.2c0.5-0.3,0.9-0.5,1.3-0.5c0.5,0,0.8,0.2,0.8,0.7s-0.2,0.8-0.7,1.1
					s-1,0.6-1.7,0.7c0.8,1.1,1.4,1.7,1.8,1.7c0.3,0,0.6-0.2,0.9-0.6c0.1,0.1,0.1,0.1,0.1,0.2c0,0.2-0.2,0.4-0.6,0.6
					s-0.7,0.4-0.9,0.4c-0.4,0-1.1-0.7-2.1-2.1l-0.2-0.2l-0.3,2l-0.9,0.3l0-0.1l0.1-0.4l0.1-0.3l0.6-4.3c0.1-1,0.6-1.9,1.4-2.6
					s1.7-1.1,2.7-1.1c0.2,0,0.4,0,0.6,0.1l-0.9,0.7c-0.2-0.1-0.5-0.1-0.7-0.1c-1.2,0-1.9,0.8-2.2,2.3C89.1,90.4,88.7,93,88.7,93z
					 M88.6,93.8c0.7,0,1.2-0.1,1.7-0.3c0.4-0.2,0.7-0.5,0.7-0.9S90.7,92,90.4,92c-0.3,0-0.6,0.2-1,0.5
					C89.1,92.8,88.8,93.3,88.6,93.8z"/>
				<path class="st0" d="M94.8,95.9l0.8-0.6c0.3,0.3,0.7,0.4,1.2,0.4c0.6,0,0.9-0.2,0.9-0.7c0-0.2-0.3-0.6-0.8-1.1l-0.3-0.3
					c-0.5-0.4-0.8-0.8-0.8-1c0-0.4,0.2-0.7,0.6-1s0.9-0.4,1.5-0.4c0.3,0,0.7,0.1,1.1,0.2l-0.7,0.5c-0.3-0.2-0.7-0.3-1-0.3
					c-0.4,0-0.7,0.2-0.7,0.4c0,0.2,0.2,0.5,0.8,0.9l0.4,0.3c0.6,0.5,0.8,0.8,0.8,1.1c0,0.4-0.2,0.8-0.8,1.1
					c-0.5,0.3-1.1,0.5-1.7,0.5C95.6,96.2,95.2,96.1,94.8,95.9z"/>
			</g>
			<g>
				<g>
					<path class="st0" d="M38.3,40.7c-5.7,1.5-12.2-0.5-16-5c-1.7-2.1-2.9-4.6-3.8-7.1l-0.4-1c8.6-2.4,19.5,0.4,23.3,9
						c-4.7-6.9-13.9-9.1-21.7-7.4l0.7-1.2c0.5,1.3,1,2.8,1.7,4.1C25.1,38,31.8,41.1,38.3,40.7C38.3,40.7,38.3,40.7,38.3,40.7z"/>
					<path class="st0" d="M41.7,37c-3.9-7.2-4-16.6,0.9-23.4C47.5,6.7,55.3,2.9,63,0.3L63.8,0L64,0.8c3.6,15-0.1,32.7-14,41.2
						c-3.3,2.1-7,3.5-10.8,4.3L35.5,47c-0.8,0.2-2.8,0.2-3.2,0.4c-0.2,0.1-0.3,0.5-0.2,1c0.1,1.7,1,3.4,1.7,5c1,1.9,2,4.4,4.3,4.4
						c3.6-0.7,6.9-2.5,10.1-4.1c7.2-3.8,14.1-8.2,20.8-12.9c1.6-0.9,0.7-2.5,1.2-4c0.2-0.4,0.5-0.8,0.8-1c2.3-1.2,4.6-2.3,6.8-3.5
						c0.8-0.3,0.8-0.8,0.6-1.7c-0.3-1-1-1.9-2-2.3c-0.6-0.3-0.8-0.2-1.3,0.1l-1.5,0.8l-3,1.6c-2,1.3-4.6,0.7-6.6-0.5
						c1.9,1.1,4.5,1.5,6.4,0.2l3-1.7l1.5-0.9c0.3-0.1,0.4-0.3,0.8-0.4c0.4-0.1,0.7,0.1,1,0.2c1.6,0.6,3.3,2.9,2.3,4.6
						c-0.2,0.3-0.6,0.5-0.8,0.6c-2.1,1.3-4.6,2.6-6.7,3.8c-0.9,0.7-0.2,2.1-0.6,3.2c-0.2,0.8-0.8,1.4-1.3,1.8
						C60.4,48.3,51,55.2,40.2,59.1c-4.1,1.7-6.7-1.5-8.1-4.9c-0.9-1.8-1.8-3.6-2-5.7c-0.2-1.4,0.7-3,2.2-3l1-0.1
						c1.2-0.1,4.3-0.7,5.5-0.9C59.4,40,66.6,20.3,62.6,1.2l1,0.6C46.7,6.6,33.7,18.6,41.7,37C41.7,37,41.7,37,41.7,37z"/>
				</g>
				<path class="st0" d="M34.6,54.9c-1.5-1.8-4.3-5.2-2.2-7.5c1.1-0.8,2.5-0.9,3.7-1.2c1.9-0.3,3.8-0.5,5.7-0.8
					c5.6-0.6,11-2.1,16.3-3.8c3.6-1.2,7.5-1.8,11.3-1.5c-7.6,1-14.3,5-21.8,6.3c-3.7,0.8-7.6,0.9-11.4,1.2c-1.1,0.1-2.2,0.1-3.1,0.6
					c-0.4,0.3-0.5,0.9-0.4,1.4C32.8,51.5,33.7,53.3,34.6,54.9C34.6,54.9,34.6,54.9,34.6,54.9z"/>
			</g>
		</g>
	</g>
</g>
</svg>
