<?xml version="1.0" encoding="UTF-8"?>
<svg id="_Слой_2" data-name="Слой 2" xmlns="http://www.w3.org/2000/svg" viewBox="0 0 99.22 100.19">
  <defs>
    <style>
      .cls-1 {
        fill: #523475;
      }
    </style>
  </defs>
  <g id="_Слой_1-2" data-name="Слой 1">
    <g id="Layer_1" data-name="Layer 1">
      <g>
        <g>
          <path class="cls-1" d="m10.25,71.35c-.12-.4-.19-.66-.34-1.06-.48-1.23-.94-1.44-2.69-1.44h-2.48c-.65,0-.72.07-.72.71v5.68h3.15c1.78,0,1.9-.17,2.29-1.84h.31v4.41h-.31c-.36-1.7-.55-1.89-2.33-1.89h-3.1v4.95c0,1.86.1,2.1,2.26,2.38v.28H.23v-.28c1.88-.24,2.09-.47,2.09-2.38v-10c0-1.93-.17-2.1-2.09-2.38v-.28h7.1c2.24,0,2.86-.02,3.13-.05-.02.61.05,2.26.14,3.14l-.35.05Z"/>
          <path class="cls-1" d="m23.43,79.98c-.12.66-.6,2.71-.87,3.56h-10.66v-.28c2.14-.28,2.26-.47,2.26-2.4v-10.02c0-1.93-.22-2.1-2.09-2.33v-.28h5.75v.28c-1.78.31-1.95.4-1.95,2.33v10.35c0,1.67.29,1.74,1.9,1.74.46,0,1.2-.02,1.61-.02,1.42,0,2-.02,2.62-.92.41-.59.75-1.2,1.08-2.1l.35.09Z"/>
          <path class="cls-1" d="m33.97,83.54v-.28c1.32-.24,1.68-.42,1.39-1.27-.31-1.01-.91-2.73-1.64-4.69h-4.84c-.53,1.51-.99,2.71-1.35,3.84-.53,1.6-.17,1.77,1.66,2.12v.28h-5.03v-.28c1.35-.24,1.76-.4,2.65-2.62l5-12.71.34-.05c1.49,4.29,3.06,8.61,4.67,12.99.75,2.05,1.03,2.05,2.55,2.38v.28h-5.4Zm-2.6-12.93c-.77,2-1.49,4.06-2.24,6.01h4.38l-2.14-6.01Z"/>
          <path class="cls-1" d="m52.18,68.5c-1.61.26-1.85.59-2.72,2.62-.75,1.82-3.32,8.2-5.12,12.78h-.34c-1.59-4.39-3.22-8.79-4.81-13.11-.67-1.84-1.01-2.03-2.57-2.29v-.28h5.63v.28c-1.61.31-1.8.57-1.52,1.46.6,1.82,3.51,9.5,4.11,11.06.96-2.4,2.84-7.38,3.95-10.42.53-1.44.51-1.79-1.66-2.1v-.28h5.05v.28Z"/>
          <path class="cls-1" d="m60.46,67.89c4.04,0,7.6,3.18,7.6,7.78,0,4.95-3.49,8.23-7.8,8.23s-7.63-3.4-7.63-7.78c0-4.27,2.99-8.23,7.83-8.23Zm-.46.51c-2.79,0-5.29,2.45-5.29,7.03s2.45,7.92,6.09,7.92c2.84,0,5.2-2.4,5.2-6.96,0-5.09-2.53-7.99-6-7.99Z"/>
          <path class="cls-1" d="m84.06,83.66c-.19,0-.77,0-.94-.02-2.02-.12-2.5-.35-3.46-1.63-.79-1.08-1.95-2.97-2.79-4.39-.63-1.04-.89-1.18-2.12-1.18h-1.01v4.48c0,1.82.19,2.07,2.12,2.33v.28h-5.92v-.28c1.88-.28,2.09-.47,2.09-2.33v-10.14c0-1.82-.17-2-2.09-2.29v-.28h5.75c1.64,0,2.94.26,3.8.87.87.57,1.47,1.63,1.47,2.9,0,1.93-1.32,3.28-3.08,4.03.46.8,1.56,2.59,2.29,3.65.82,1.23,1.44,2.12,2,2.71.6.64,1.01.83,1.97.99l-.08.3Zm-8.86-7.69c1.2,0,1.88-.05,2.55-.52.96-.66,1.28-1.63,1.28-3.04,0-2.57-1.44-3.72-3.49-3.72-.89,0-1.32.09-1.52.21-.22.14-.29.35-.29,1.11v5.96h1.47Z"/>
          <path class="cls-1" d="m93.8,83.54v-.28c1.32-.24,1.68-.42,1.4-1.27-.31-1.01-.91-2.73-1.64-4.69h-4.83c-.53,1.51-.99,2.71-1.35,3.84-.53,1.6-.17,1.77,1.66,2.12v.28h-5.03v-.28c1.35-.24,1.76-.4,2.65-2.62l5-12.71.34-.05c1.49,4.29,3.06,8.61,4.67,12.99.74,2.05,1.03,2.05,2.55,2.38v.28h-5.42Zm-2.6-12.93c-.77,2-1.49,4.06-2.24,6.01h4.38l-2.14-6.01Z"/>
        </g>
        <g>
          <path class="cls-1" d="m0,95.94l.85-.55c.32.27.73.41,1.21.41.59,0,.89-.23.89-.68,0-.25-.27-.6-.82-1.05l-.35-.29c-.52-.43-.77-.77-.77-1.04,0-.38.21-.7.62-.96s.92-.39,1.53-.39c.33,0,.69.05,1.08.15l-.74.54c-.31-.19-.66-.28-1.04-.28-.45,0-.67.15-.67.45,0,.21.25.52.75.94l.38.32c.57.47.85.85.85,1.14,0,.41-.25.78-.75,1.09-.5.32-1.07.47-1.72.47-.46,0-.9-.09-1.3-.27Z"/>
          <path class="cls-1" d="m8.52,96.21c-.93,0-1.39-.49-1.39-1.46,0-.78.36-1.54,1.09-2.27.72-.73,1.47-1.09,2.25-1.09.94,0,1.41.49,1.41,1.46,0,.79-.36,1.54-1.09,2.27-.72.72-1.48,1.09-2.27,1.09Zm.75-.55c.47,0,.87-.21,1.19-.63s.48-.94.48-1.56c0-1.02-.4-1.53-1.2-1.53-.47,0-.86.21-1.18.63s-.48.94-.48,1.56c0,1.02.4,1.53,1.19,1.53Z"/>
          <path class="cls-1" d="m19.32,94.15c-.47.57-1,1.06-1.59,1.46s-1.07.6-1.44.6c-.41,0-.61-.22-.61-.65,0-.16.03-.42.08-.79l.22-1.61s.01-.12.03-.28l.04-.32c.01-.09.02-.18.02-.25,0-.19-.07-.28-.2-.28-.31,0-.65.28-1.01.83-.08-.05-.12-.1-.12-.16,0-.2.23-.47.68-.81.45-.34.82-.51,1.08-.51.34,0,.51.19.51.56,0,.09-.01.19-.02.31l-.06.38-.05.41-.19,1.4c-.03.24-.05.48-.05.73,0,.23.1.34.31.34.46,0,.99-.3,1.57-.91.58-.61.93-1.21,1.04-1.8l.21-1.16,1-.27c-.12.38-.2.72-.26,1.01l-.37,2.05c-.02.12-.04.23-.05.31l-.04.27c-.03.17-.04.28-.04.35,0,.14.05.21.15.21.35,0,.71-.31,1.07-.92.11.05.17.1.17.16,0,.11-.18.35-.54.69-.48.47-.93.71-1.34.71-.3,0-.45-.16-.45-.48,0-.1.01-.24.04-.41l.07-.39c.04-.21.06-.36.08-.43l.06-.35Z"/>
          <path class="cls-1" d="m26.71,94.64c.12.05.18.1.18.18,0,.24-.22.53-.66.87-.44.35-.81.52-1.11.52-.34,0-.51-.2-.51-.59,0-.24.02-.48.06-.73l.07-.44.48-3.41c.15-1.04.6-1.91,1.35-2.6.75-.7,1.61-1.04,2.59-1.04.24,0,.44.02.61.05l-.87.71c-.19-.05-.42-.08-.68-.08-.62,0-1.08.17-1.38.52-.31.34-.52.93-.63,1.75l-.57,4.11c-.05.32-.07.54-.07.68,0,.29.06.44.19.44.15,0,.33-.1.53-.29.17-.2.32-.42.42-.65Z"/>
          <path class="cls-1" d="m37,96.21c-.93,0-1.39-.49-1.39-1.46,0-.78.36-1.54,1.09-2.27.72-.73,1.47-1.09,2.25-1.09.94,0,1.41.49,1.41,1.46,0,.79-.36,1.54-1.09,2.27-.73.72-1.48,1.09-2.27,1.09Zm.74-.55c.47,0,.87-.21,1.19-.63s.48-.94.48-1.56c0-1.02-.4-1.53-1.2-1.53-.47,0-.86.21-1.18.63s-.48.94-.48,1.56c0,1.02.4,1.53,1.19,1.53Z"/>
          <path class="cls-1" d="m45.27,92.08l-.5,3.96c-.11.9-.28,1.58-.51,2.05s-.61.89-1.13,1.27c-.76.55-1.61.83-2.56.83-.19,0-.43-.04-.73-.12l.82-.59c.35.09.67.14.95.14,1.21,0,1.91-.73,2.1-2.19l.16-1.22.51-4.13h-1.11l.7-.57h.49l.04-.28c.15-1.21.59-2.15,1.31-2.83.73-.68,1.67-1.01,2.82-1.01.22,0,.46.02.74.05l-.86.67c-.31-.09-.61-.14-.91-.14-.71,0-1.21.19-1.51.58-.3.39-.52,1.14-.65,2.24l-.09.72h2.5l-.74.57h-1.84Z"/>
          <path class="cls-1" d="m59.44,91.46l.06-.42c.15-1.05.6-1.92,1.35-2.61s1.62-1.04,2.6-1.04c.23,0,.44.02.61.05l-.88.71c-.19-.05-.42-.08-.69-.08-.62,0-1.08.17-1.38.51-.31.34-.51.93-.63,1.75l-.57,4.09-.04.31c-.04.28-.06.48-.06.59,0,.16.05.24.16.24.34,0,.68-.31,1.03-.92.11.05.17.1.17.16,0,.12-.17.35-.5.69-.47.47-.9.71-1.31.71-.32,0-.47-.17-.47-.52,0-.13.02-.38.07-.76l.06-.43.04-.36c-.28.49-.73.96-1.36,1.4-.63.45-1.14.67-1.55.67-.58,0-.87-.36-.87-1.08,0-.94.4-1.79,1.2-2.54.8-.75,1.71-1.13,2.71-1.13.06,0,.14,0,.25,0Zm-.1.71c-.34-.15-.66-.22-.95-.22-.61,0-1.11.27-1.51.82-.4.55-.59,1.25-.59,2.09,0,.42.16.64.47.64.38,0,.82-.22,1.33-.67.66-.57,1.05-1.27,1.17-2.11l.08-.55Z"/>
          <path class="cls-1" d="m66.1,93.45c.91-1.38,1.81-2.06,2.7-2.06.23,0,.46.04.69.13l-.87.76c-.13-.06-.3-.09-.51-.09-.43,0-.88.28-1.35.83s-.75,1.12-.84,1.72l-.17,1.2-.92.25.02-.15.04-.32.05-.32.32-2.33.04-.25c.03-.19.04-.35.04-.47,0-.2-.07-.3-.21-.3-.33,0-.66.28-.98.84-.1-.06-.15-.13-.15-.19.01-.2.24-.46.69-.79s.8-.49,1.06-.49c.35,0,.52.18.52.55,0,.09-.01.21-.03.36l-.04.34-.06.41-.04.37Z"/>
          <path class="cls-1" d="m74.61,94.65c.11.05.17.1.17.15,0,.12-.18.35-.54.7-.48.47-.93.71-1.34.71-.3,0-.45-.16-.45-.47,0-.13.06-.55.18-1.23l.24-1.33.06-.34.05-.27c.02-.11.03-.21.03-.29,0-.16-.06-.24-.17-.24-.32,0-.66.28-1.03.84-.08-.06-.12-.11-.12-.17,0-.2.23-.47.69-.8.46-.34.83-.51,1.11-.51.31,0,.46.17.46.51,0,.07-.02.2-.05.4l-.06.33s-.03.16-.07.4l-.25,1.4-.06.31c-.05.31-.08.52-.08.62,0,.14.05.21.15.21.36-.01.71-.32,1.08-.93Zm-1.24-3.89l.52-1.02c.46-.15.84-.36,1.14-.62.04.05.06.09.06.14,0,.44-.58.94-1.72,1.5Z"/>
          <path class="cls-1" d="m79.3,95.91l-.92.3.02-.14.05-.36.05-.34.32-2.27.04-.26c.02-.2.04-.37.04-.49,0-.21-.07-.31-.2-.31-.31,0-.64.28-.99.83-.09-.06-.14-.12-.14-.16,0-.2.23-.46.68-.8.45-.34.81-.51,1.06-.51.35,0,.53.18.53.54,0,.09-.01.21-.03.37l-.05.4-.05.33-.05.35c.49-.58,1.02-1.05,1.6-1.42.58-.37,1.07-.56,1.48-.56s.6.22.6.66c0,.13-.02.33-.07.6l-.34,1.83c-.07.37-.1.65-.1.87,0,.17.06.25.17.25.28,0,.63-.3,1.05-.9.1.05.15.1.15.15,0,.21-.23.49-.69.84s-.83.52-1.12.52c-.32,0-.48-.18-.48-.55,0-.27.04-.64.13-1.11l.22-1.19c.07-.39.1-.69.1-.92,0-.26-.11-.39-.34-.39-.52,0-1.06.28-1.6.85s-.86,1.18-.95,1.83l-.17,1.16Z"/>
          <path class="cls-1" d="m88.7,93c.31-.46.7-.84,1.16-1.15.47-.31.89-.46,1.28-.46.53,0,.79.22.79.65s-.22.79-.66,1.13-1.02.59-1.74.74c.78,1.11,1.36,1.67,1.75,1.67.28,0,.57-.19.87-.57.09.06.14.11.14.16,0,.15-.19.36-.57.63s-.68.41-.91.41c-.41.02-1.11-.68-2.11-2.08l-.15-.22-.27,2.01-.92.3.02-.14.05-.36.05-.34.6-4.3c.14-1.02.61-1.88,1.41-2.6.8-.72,1.7-1.07,2.7-1.07.21,0,.4.02.59.05l-.91.71c-.23-.06-.46-.08-.66-.08-1.22,0-1.94.76-2.15,2.28l-.36,2.63Zm-.11.76c.66,0,1.21-.12,1.65-.35.44-.24.66-.53.66-.88s-.16-.53-.47-.53c-.29,0-.61.17-.96.5-.34.33-.64.75-.88,1.26Z"/>
          <path class="cls-1" d="m94.76,95.94l.85-.55c.32.27.73.41,1.21.41.59,0,.89-.23.89-.68,0-.25-.27-.6-.82-1.05l-.35-.29c-.52-.43-.77-.77-.77-1.04,0-.38.21-.7.62-.96s.92-.39,1.53-.39c.33,0,.69.05,1.08.15l-.74.54c-.31-.19-.66-.28-1.04-.28-.45,0-.67.15-.67.45,0,.21.25.52.75.94l.38.32c.57.47.85.85.85,1.14,0,.41-.25.78-.75,1.09-.5.32-1.07.47-1.72.47-.47,0-.9-.09-1.3-.27Z"/>
        </g>
        <g>
          <g>
            <path class="cls-1" d="m38.31,40.73c-5.69,1.46-12.17-.47-15.96-5.04-1.73-2.07-2.89-4.59-3.75-7.12l-.38-.99c8.57-2.4,19.49.39,23.31,9.03-4.73-6.89-13.88-9.12-21.7-7.38l.68-1.25c.47,1.34.99,2.84,1.69,4.09,2.91,5.96,9.61,9.04,16.11,8.66h0Z"/>
            <path class="cls-1" d="m41.71,36.99c-3.88-7.21-3.98-16.63.92-23.43C47.46,6.72,55.33,2.89,63.04.27l.79-.27.19.83c3.63,15.01-.08,32.72-13.96,41.24-3.33,2.07-6.99,3.5-10.82,4.29l-3.78.65c-.8.16-2.76.24-3.2.4-.15.12-.27.49-.24,1,.14,1.72.95,3.36,1.72,4.97.95,1.89,2.04,4.4,4.35,4.36,3.58-.66,6.86-2.46,10.13-4.06,7.19-3.79,14.12-8.22,20.76-12.94,1.56-.92.72-2.54,1.22-4.02.16-.42.49-.76.85-.98,2.26-1.18,4.56-2.33,6.81-3.55.8-.31.85-.84.6-1.67-.32-1.02-.99-1.9-1.97-2.33-.6-.3-.79-.18-1.35.14l-1.51.8-3.01,1.6c-2.03,1.32-4.63.73-6.55-.47,1.94,1.08,4.47,1.55,6.38.19l2.96-1.72,1.48-.86c.26-.13.45-.32.85-.41.43-.06.69.09.98.19,1.58.61,3.26,2.92,2.32,4.62-.23.34-.6.49-.81.62-2.14,1.26-4.6,2.64-6.66,3.75-.93.71-.17,2.1-.58,3.23-.16.75-.77,1.42-1.3,1.8-9.24,6.64-18.64,13.55-29.46,17.39-4.08,1.74-6.66-1.53-8.13-4.86-.86-1.78-1.8-3.63-1.95-5.7-.17-1.37.72-3.01,2.25-3.04l.97-.1c1.2-.08,4.28-.67,5.51-.89,20.56-4.5,27.77-24.18,23.68-43.29l.97.56c-16.81,4.86-29.79,16.9-21.82,35.25h0Z"/>
          </g>
          <path class="cls-1" d="m34.57,54.89c-1.51-1.82-4.26-5.24-2.25-7.53,1.08-.84,2.5-.92,3.69-1.18,1.89-.34,3.77-.53,5.66-.75,5.58-.63,10.97-2.14,16.35-3.76,3.62-1.18,7.52-1.77,11.33-1.54-7.58,1.03-14.28,4.95-21.78,6.35-3.72.85-7.57.91-11.36,1.24-1.09.13-2.22.14-3.12.59-.39.3-.46.87-.44,1.43.16,1.78,1.07,3.55,1.92,5.15h0Z"/>
        </g>
      </g>
    </g>
  </g>
</svg>