<?xml version="1.0" encoding="UTF-8"?>
<svg id="_Слой_2" data-name=" Слой 2" xmlns="http://www.w3.org/2000/svg" viewBox="0 0 96.04 93.65">
  <defs>
    <style>
      .cls-1 {
        fill: #c9c9c9;
      }
    </style>
  </defs>
  <g id="_Слой_1-2" data-name=" Слой 1-2">
    <g id="Layer_1" data-name="Layer 1">
      <g>
        <g>
          <path class="cls-1" d="m36.6,57.6c0-.1-.1-.1-.1-.2-7.1-10.2-20.5-13.8-32.3-11.7.6,1.6,1.3,3.3,2.1,4.8,4.6,9.4,15.1,14.2,25.3,13.6-8.9,2.3-19.1-.7-25.1-7.9-2.7-3.3-4.6-7.3-5.9-11.2l-.6-1.6c12.8-3.6,29,.2,35.7,12.3h0c.3.6.7,1.3.9,1.9Z"/>
          <path class="cls-1" d="m95.6,50.8c-.4.5-.9.8-1.3,1-3.4,2-7.2,4.2-10.5,5.9-1.5,1.1-.3,3.3-.9,5.1-.3,1.2-1.2,2.2-2,2.8-14.5,10.4-29.3,21.3-46.3,27.3-6.4,2.7-10.5-2.4-12.8-7.6-1.4-2.8-2.8-5.7-3.1-9-.3-2.2,1.1-4.7,3.5-4.8l1.5-.2c1.9-.1,6.7-1.1,8.7-1.4,31.9-6.9,43.4-37.1,37.6-66.8.4-.1.8-.3,1.3-.4l-1.5-.9c.1.4.2.8.3,1.3-25.9,7.9-45.5,26.7-33.2,55.1-.1-.3-.3-.5-.4-.8,0,.1.1.1.1.2-.3-.6-.6-1.3-.9-1.9h0c-4.9-11-4.5-24.4,2.7-34.4C46,10.6,58.3,4.6,70.5.4l1.2-.4.3,1.3c5.7,23.6-.1,51.5-22,64.9-3.3,2-6.7,3.7-10.3,4.9-1,.1-1.9.3-2.9.4-3,.3-5.9.6-8.9,1.2-1.9.4-4.1.5-5.8,1.9v.1h0c-.1.1-.2.2-.2.3.1-.1.2-.2.3-.3.8-.2,3.8-.4,5-.6l5.9-1c2.3-.5,4.5-1.1,6.7-1.8,7.8-1.1,15.3-3.3,22.9-5.5,5.7-1.9,11.8-2.8,17.8-2.4-11.9,1.6-22.5,7.8-34.3,10-5.9,1.1-12,1.2-17.9,1.7-1.7.2-3.5.2-4.9.9-.6.5-.7,1.4-.7,2.3.2,2.8,1.7,5.6,3,8.1-.1-.1-.2-.2-.2-.3-.4-.7-.7-1.4-1.1-2.1-1.2-2.5-2.5-5.1-2.7-7.8,0-.5,0-.9.1-1.2-2.4,3.5,1.3,8.3,3.6,11.1,1.3,2.5,3,4.8,5.8,4.8,5.6-1,10.8-3.9,15.9-6.4,11.3-6,22.2-12.9,32.6-20.4,2.5-1.5,1.1-4,1.9-6.3.3-.7.8-1.2,1.3-1.5,3.5-1.9,7.2-3.7,10.7-5.6,1.3-.5,1.3-1.3.9-2.6-.5-1.6-1.6-3-3.1-3.7-.9-.5-1.2-.3-2.1.2l-2.4,1.3-4.7,2.5c-3.2,2.1-7.3,1.1-10.3-.7,3,1.7,7,2.4,10,.3l4.6-2.7,2.3-1.4c.4-.2.7-.5,1.3-.6.7-.1,1.1.1,1.5.3,2.9.9,5.5,4.5,4,7.2Z"/>
          <path class="cls-1" d="m25.4,86.1c-2.3-2.8-6-7.7-3.6-11.1-.1.3-.2.7-.1,1.2.2,2.7,1.5,5.3,2.7,7.8.3.6.7,1.4,1,2.1Z"/>
          <path class="cls-1" d="m36.6,57.6c0-.1-.1-.1-.1-.2-.3-.5-.5-1.1-.8-1.7.3.6.7,1.3.9,1.9Z"/>
          <path class="cls-1" d="m39.7,71.1c-2.2.8-4.4,1.4-6.7,1.8l-5.9,1c-1.2.3-4.2.4-5,.6v-.1c1.7-1.3,3.9-1.5,5.8-1.9,3-.5,5.9-.8,8.9-1.2,1,.1,2,0,2.9-.2Z"/>
          <path class="cls-1" d="m71.2,2.8c-.4.1-.8.3-1.3.4-.1-.4-.2-.8-.3-1.3,0,0,1.6.9,1.6.9Z"/>
        </g>
        <path class="cls-1" d="m25.4,86.1c-2.3-2.8-6-7.7-3.6-11.1-.1.3-.2.7-.1,1.2.2,2.7,1.5,5.3,2.7,7.8.3.6.7,1.4,1,2.1Z"/>
        <path class="cls-1" d="m39.7,71.1c-2.2.8-4.4,1.4-6.7,1.8l-5.9,1c-1.2.3-4.2.4-5,.6v-.1c1.7-1.3,3.9-1.5,5.8-1.9,3-.5,5.9-.8,8.9-1.2,1,.1,2,0,2.9-.2Z"/>
      </g>
    </g>
  </g>
</svg>