<?xml version="1.0" encoding="utf-8"?>
<!-- Generator: Adobe Illustrator 27.2.0, SVG Export Plug-In . SVG Version: 6.00 Build 0)  -->
<svg version="1.1" id="Capa_1" xmlns="http://www.w3.org/2000/svg" xmlns:xlink="http://www.w3.org/1999/xlink" x="0px" y="0px"
	 viewBox="0 0 512 512" style="enable-background:new 0 0 512 512;" xml:space="preserve">
<style type="text/css">
	.st0{fill-rule:evenodd;clip-rule:evenodd;fill:#5C5C5C;}
</style>
<g id="Artboard">
	<path class="st0" d="M256,0C114.6,0,0,114.6,0,256s114.6,256,256,256s256-114.6,256-256S397.4,0,256,0z M374.7,174.1
		c-3.8,40.5-20.5,138.7-29,184c-3.6,19.2-10.7,25.6-17.5,26.2c-14.9,1.4-26.2-9.8-40.6-19.3c-22.5-14.8-35.3-24-57.1-38.4
		c-25.3-16.7-8.9-25.8,5.5-40.8c3.8-3.9,69.3-63.5,70.5-68.9c0.1-0.7,0.3-3.2-1.2-4.5c-1.5-1.3-3.7-0.9-5.3-0.5
		c-2.3,0.5-38.3,24.3-108,71.4c-10.2,7-19.5,10.4-27.8,10.3c-9.1-0.2-26.7-5.2-39.8-9.4c-16-5.2-28.8-8-27.7-16.8
		c0.6-4.6,6.9-9.3,19-14.1c74.6-32.5,124.4-54,149.3-64.3c71.1-29.6,85.9-34.7,95.5-34.9C372.7,153.9,375.6,163.9,374.7,174.1z"/>
</g>
</svg>
