<?xml version="1.0" encoding="utf-8"?>
<!-- Generator: Adobe Illustrator 27.2.0, SVG Export Plug-In . SVG Version: 6.00 Build 0)  -->
<svg version="1.1" id="_Слой_2" xmlns="http://www.w3.org/2000/svg" xmlns:xlink="http://www.w3.org/1999/xlink" x="0px"
	 y="0px" viewBox="0 0 99.2 100.2" style="enable-background:new 0 0 99.2 100.2;" xml:space="preserve">
<style type="text/css">
	.st0{fill:#FFFFFF;}
</style>
<g id="_Слой_1-2">
	<g id="Layer_1">
		<g>
			<g>
				<g>
					<path class="st0" d="M38.3,59.6c0-0.1-0.1-0.1-0.1-0.2C31.1,49.2,17.7,45.6,5.9,47.7C6.5,49.3,7.2,51,8,52.5
						c4.6,9.4,15.1,14.2,25.3,13.6c-8.9,2.3-19.1-0.7-25.1-7.9C5.5,54.9,3.6,50.9,2.3,47l-0.6-1.6c12.8-3.6,29,0.2,35.7,12.3l0,0
						C37.7,58.3,38.1,59,38.3,59.6z"/>
					<path class="st0" d="M97.3,52.8c-0.4,0.5-0.9,0.8-1.3,1c-3.4,2-7.2,4.2-10.5,5.9c-1.5,1.1-0.3,3.3-0.9,5.1
						c-0.3,1.2-1.2,2.2-2,2.8C68.1,78,53.3,88.9,36.3,94.9c-6.4,2.7-10.5-2.4-12.8-7.6c-1.4-2.8-2.8-5.7-3.1-9
						c-0.3-2.2,1.1-4.7,3.5-4.8l1.5-0.2c1.9-0.1,6.7-1.1,8.7-1.4C66,65,77.5,34.8,71.7,5.1C72.1,5,72.5,4.8,73,4.7l-1.5-0.9
						c0.1,0.4,0.2,0.8,0.3,1.3C45.9,13,26.3,31.8,38.6,60.2c-0.1-0.3-0.3-0.5-0.4-0.8c0,0.1,0.1,0.1,0.1,0.2
						c-0.3-0.6-0.6-1.3-0.9-1.9l0,0c-4.9-11-4.5-24.4,2.7-34.4C47.7,12.6,60,6.6,72.2,2.4L73.4,2l0.3,1.3c5.7,23.6-0.1,51.5-22,64.9
						c-3.3,2-6.7,3.7-10.3,4.9c-1,0.1-1.9,0.3-2.9,0.4c-3,0.3-5.9,0.6-8.9,1.2c-1.9,0.4-4.1,0.5-5.8,1.9c0,0,0,0,0,0.1l0,0
						c-0.1,0.1-0.2,0.2-0.2,0.3c0.1-0.1,0.2-0.2,0.3-0.3c0.8-0.2,3.8-0.4,5-0.6l5.9-1c2.3-0.5,4.5-1.1,6.7-1.8
						c7.8-1.1,15.3-3.3,22.9-5.5c5.7-1.9,11.8-2.8,17.8-2.4c-11.9,1.6-22.5,7.8-34.3,10c-5.9,1.1-12,1.2-17.9,1.7
						c-1.7,0.2-3.5,0.2-4.9,0.9c-0.6,0.5-0.7,1.4-0.7,2.3c0.2,2.8,1.7,5.6,3,8.1c-0.1-0.1-0.2-0.2-0.2-0.3c-0.4-0.7-0.7-1.4-1.1-2.1
						c-1.2-2.5-2.5-5.1-2.7-7.8c0-0.5,0-0.9,0.1-1.2c-2.4,3.5,1.3,8.3,3.6,11.1c1.3,2.5,3,4.8,5.8,4.8c5.6-1,10.8-3.9,15.9-6.4
						c11.3-6,22.2-12.9,32.6-20.4c2.5-1.5,1.1-4,1.9-6.3c0.3-0.7,0.8-1.2,1.3-1.5c3.5-1.9,7.2-3.7,10.7-5.6c1.3-0.5,1.3-1.3,0.9-2.6
						c-0.5-1.6-1.6-3-3.1-3.7c-0.9-0.5-1.2-0.3-2.1,0.2l-2.4,1.3l-4.7,2.5c-3.2,2.1-7.3,1.1-10.3-0.7c3,1.7,7,2.4,10,0.3l4.6-2.7
						l2.3-1.4c0.4-0.2,0.7-0.5,1.3-0.6c0.7-0.1,1.1,0.1,1.5,0.3C96.2,46.5,98.8,50.1,97.3,52.8z"/>
					<path class="st0" d="M27.1,88.1c-2.3-2.8-6-7.7-3.6-11.1c-0.1,0.3-0.2,0.7-0.1,1.2c0.2,2.7,1.5,5.3,2.7,7.8
						C26.4,86.6,26.8,87.4,27.1,88.1z"/>
					<path class="st0" d="M38.3,59.6c0-0.1-0.1-0.1-0.1-0.2c-0.3-0.5-0.5-1.1-0.8-1.7C37.7,58.3,38.1,59,38.3,59.6z"/>
					<path class="st0" d="M41.4,73.1c-2.2,0.8-4.4,1.4-6.7,1.8l-5.9,1c-1.2,0.3-4.2,0.4-5,0.6c0,0,0,0,0-0.1
						c1.7-1.3,3.9-1.5,5.8-1.9c3-0.5,5.9-0.8,8.9-1.2C39.5,73.4,40.5,73.3,41.4,73.1z"/>
					<path class="st0" d="M72.9,4.8c-0.4,0.1-0.8,0.3-1.3,0.4c-0.1-0.4-0.2-0.8-0.3-1.3L72.9,4.8z"/>
				</g>
				<path class="st0" d="M27.1,88.1c-2.3-2.8-6-7.7-3.6-11.1c-0.1,0.3-0.2,0.7-0.1,1.2c0.2,2.7,1.5,5.3,2.7,7.8
					C26.4,86.6,26.8,87.4,27.1,88.1z"/>
				<path class="st0" d="M41.4,73.1c-2.2,0.8-4.4,1.4-6.7,1.8l-5.9,1c-1.2,0.3-4.2,0.4-5,0.6c0,0,0,0,0-0.1c1.7-1.3,3.9-1.5,5.8-1.9
					c3-0.5,5.9-0.8,8.9-1.2C39.5,73.4,40.5,73.3,41.4,73.1z"/>
			</g>
		</g>
	</g>
</g>
</svg>
