<?xml version="1.0" encoding="UTF-8"?>
<svg id="_Слой_2" data-name=" Слой 2" xmlns="http://www.w3.org/2000/svg" viewBox="0 0 233.2 194.31">
  <defs>
    <style>
      .cls-1 {
        fill-rule: evenodd;
      }

      .cls-1, .cls-2 {
        fill: #c9c9c9;
      }
    </style>
  </defs>
  <g id="_Слой_1-2" data-name=" Слой 1-2">
    <g>
      <path class="cls-1" d="m86.35,75.59c-11.61,2.7-24.84-.88-32.58-9.35-3.54-3.83-5.89-8.52-7.66-13.21l-.78-1.83c17.48-4.45,39.79.72,47.59,16.76-9.65-12.78-28.34-16.92-44.3-13.69l1.38-2.31c.95,2.49,2.02,5.27,3.44,7.58,5.95,11.03,19.64,16.74,32.91,16.04h0Z"/>
      <path class="cls-1" d="m93.29,68.64c-7.92-13.38-8.13-30.86,1.89-43.47,9.86-12.7,25.92-19.8,41.66-24.66l1.61-.51.39,1.54c7.41,27.85-.16,60.72-28.49,76.53-6.81,3.83-14.27,6.5-22.09,7.95l-7.72,1.21c-1.63.29-5.64.45-6.53.74-.31.21-.54.91-.49,1.85.29,3.19,1.94,6.24,3.52,9.22,1.94,3.5,4.16,8.17,8.89,8.09,7.31-1.23,14-4.57,20.67-7.53,14.68-7.04,28.82-15.25,42.38-24.02,3.19-1.71,1.48-4.71,2.49-7.47.33-.78.99-1.42,1.73-1.83,4.61-2.2,9.32-4.32,13.91-6.59,1.63-.58,1.73-1.56,1.23-3.09-.66-1.89-2.02-3.52-4.03-4.32-1.23-.56-1.61-.33-2.76.25l-3.07,1.48-6.15,2.98c-4.14,2.45-9.45,1.36-13.36-.88,3.97,2,9.12,2.88,13.03.35l6.05-3.19,3.01-1.59c.53-.23.91-.6,1.73-.76.88-.12,1.4.18,2,.35,3.23,1.13,6.65,5.43,4.73,8.58-.47.62-1.23.91-1.65,1.15-4.38,2.33-9.39,4.9-13.59,6.96-1.91,1.32-.35,3.89-1.19,5.99-.33,1.4-1.58,2.63-2.64,3.35-18.86,12.31-38.04,25.15-60.13,32.26-8.32,3.23-13.59-2.84-16.59-9.02-1.75-3.31-3.68-6.73-3.99-10.58-.35-2.55,1.48-5.58,4.59-5.64l1.98-.19c2.45-.16,8.73-1.24,11.24-1.65,41.97-8.34,56.69-44.87,48.33-80.32l1.98,1.03c-34.35,9.06-60.83,31.41-44.56,65.46h-.01Z"/>
      <path class="cls-1" d="m78.71,101.86c-3.07-3.38-8.69-9.72-4.59-13.96,2.2-1.56,5.1-1.71,7.53-2.2,3.85-.62,7.7-.99,11.55-1.4,11.4-1.17,22.38-3.97,33.37-6.98,7.39-2.2,15.34-3.29,23.12-2.86-15.48,1.91-29.15,9.18-44.46,11.79-7.58,1.58-15.46,1.69-23.18,2.29-2.22.23-4.53.25-6.36,1.09-.8.56-.93,1.61-.89,2.64.31,3.33,2.18,6.61,3.91,9.59h0Z"/>
    </g>
    <path class="cls-2" d="m24.66,129.36c-.23-1.93-.4-5.52-.35-6.87-.63.05-2.12.1-7.44.1H0v.62c4.46.68,4.98.99,4.98,5.26v22.05c0,4.21-.52,4.73-4.98,5.25v.62h14.42v-.62c-5.15-.62-5.38-1.14-5.38-5.25v-10.91h7.38c4.23,0,4.75.62,5.55,4.58h.74v-10.4h-.74c-.91,3.96-1.2,4.32-5.44,4.32h-7.49v-12.54c0-1.41.17-1.56,1.72-1.56h5.89c4.17,0,5.26.42,6.41,3.12.35.88.52,1.51.8,2.39l.8-.16h0Z"/>
    <path class="cls-2" d="m54.81,148.35c-.8,1.82-1.6,3.32-2.57,4.63-1.49,1.98-2.86,2.03-6.23,2.03l-3.84.05c-3.83,0-4.52-.15-4.52-3.85v-22.84c0-4.27.69-4.53,4.63-5.15v-.62h-13.68v.62c4.41.52,4.98.88,4.98,5.15v22.1c0,4.27-.29,4.68-5.38,5.31v.62h25.35c.63-1.87,1.77-6.4,2.06-7.85,0,0-.8-.2-.8-.2Z"/>
    <path class="cls-2" d="m90.67,156.41v-.62c-3.61-.73-4.29-.73-6.06-5.25-3.84-9.68-7.55-19.19-11.1-28.66l-.8.11-11.9,28.03c-2.12,4.89-3.09,5.25-6.29,5.77v.62h11.95v-.62c-4.35-.78-5.2-1.14-3.94-4.68.86-2.5,1.95-5.15,3.2-8.48h11.5c1.72,4.32,3.15,8.12,3.89,10.35.69,1.87-.17,2.29-3.32,2.81v.62h12.87Zm-13.96-15.3h-10.41c1.77-4.31,3.55-8.74,5.38-13.16l5.03,13.16Z"/>
    <path class="cls-2" d="m124.54,122.6h-12.01v.62c5.15.68,5.21,1.46,3.95,4.63-2.63,6.71-7.21,17.58-9.5,22.89-1.43-3.43-8.24-20.28-9.67-24.29-.69-1.98-.17-2.5,3.6-3.23v-.62h-13.39v.62c3.66.68,4.52.99,6.12,5.04,3.77,9.52,7.66,19.24,11.44,28.92h.8c4.29-10.09,10.41-24.18,12.18-28.19,2.06-4.47,2.52-5.1,6.47-5.77v-.62h0Z"/>
    <path class="cls-2" d="m124.77,140.02c0,9.67,8.06,17.16,18.13,17.16s18.54-7.23,18.54-18.15c0-10.14-8.47-17.17-18.08-17.17-11.5,0-18.59,8.75-18.59,18.16h0Zm31.76.63c0,10.04-5.61,15.34-12.36,15.34-8.64,0-14.48-7.28-14.48-17.48s5.95-15.5,12.59-15.5c8.24,0,14.25,6.4,14.25,17.64Z"/>
    <path class="cls-2" d="m195.27,156.04c-2.29-.42-3.2-.78-4.63-2.18-1.32-1.3-2.81-3.28-4.75-5.98-1.72-2.34-4.35-6.3-5.44-8.06,4.18-1.66,7.32-4.63,7.32-8.89,0-2.91-1.43-5.25-3.49-6.5-2.06-1.35-4.81-1.82-9.04-1.82h-13.67v.62c4.58.68,4.98,1.04,4.98,5.04v22.36c0,4.11-.52,4.53-4.98,5.15v.62h14.07v-.62c-4.58-.57-5.03-1.14-5.03-5.15v-9.88h2.4c2.92,0,3.55.31,5.03,2.6,2,3.12,4.75,7.28,6.64,9.67,2.29,2.81,3.43,3.33,8.24,3.59.4.05,1.77.05,2.23.05l.12-.62h0Zm-24.66-16.33v-13.11c0-1.66.23-2.13.74-2.44.46-.26,1.49-.47,3.55-.47,4.58,0,8.3,2.5,8.3,8.17,0,3.12-.86,5.25-3.15,6.71-1.6,1.04-3.09,1.14-5.95,1.14h-3.49Z"/>
    <path class="cls-2" d="m233.2,156.41v-.62c-3.61-.73-4.29-.73-6.06-5.25-3.84-9.68-7.55-19.19-11.1-28.66l-.8.11-11.9,28.02c-2.12,4.89-3.09,5.25-6.29,5.77v.62h11.95v-.62c-4.35-.78-5.2-1.14-3.94-4.68.86-2.5,1.95-5.15,3.2-8.48h11.5c1.72,4.32,3.15,8.12,3.89,10.35.69,1.87-.17,2.29-3.32,2.81v.62h12.87Zm-13.96-15.28h-10.41c1.77-4.31,3.55-8.74,5.38-13.16l5.03,13.16Z"/>
    <path class="cls-2" d="m33.08,186.47l-.66-.04c-1.04,0-1.95-.41-2.72-1.2-.15-.13-.31-.33-.47-.61l-.19-.32-.19-.35-.07-.11-.1-.13c-.07-.12-.13-.21-.19-.31-.04-.12-.06-.27-.06-.48v-.52c0-.33.07-.61.23-.87.25-.4.66-.75,1.26-1.03l.1-.07.19-.07c.12-.05.25-.11.37-.15.37-.12.64-.17.83-.17.16,0,.26.03.32.09l.06.11v.11c0,.12-.1.29-.32.55l-.23.24c-.09.11-.15.17-.19.21-.01,0-.06.08-.13.17l-.16.15-.1.15c-.23.29-.34.49-.34.63,0,.11.03.15.1.15.06,0,.12-.03.19-.07.09-.04.13-.07.16-.07.06,0,.1.03.1.09,0,.04-.04.11-.1.2-.07.08-.1.15-.1.2,0,.08.04.15.13.21l.16.09.16.12c.12.15.32.24.57.27.18.03.29.04.37.04.06,0,.15,0,.23-.04.06-.03.12-.04.13-.04l.1.03.07.03c.06.03.15.04.23.04.13,0,.31,0,.5-.04.18,0,.29-.03.34-.03.22-.09.47-.13.73-.13l.1.04.16.03c.12.04.26.07.44.07l.32-.03.32-.04c.16,0,.34-.05.56-.11l.5-.17c.22-.05.35-.09.37-.11.22-.13.38-.2.44-.2.4-.03.7-.13.89-.32l.03-.07.07-.07c.03-.05.06-.09.1-.09.03,0,.06,0,.07.04.06,0,.1.03.16.03s.1-.03.16-.07c.03,0,.06-.03.06-.07,0-.03,0-.04-.06-.04h-.13c-.07,0-.1,0-.1-.04,0-.04.03-.08.1-.11.1-.09.28-.17.53-.27l.29-.09c.1-.04.19-.07.23-.09.2-.09.35-.21.42-.35l.13-.2.03-.21c.06-.15.13-.21.23-.21,0,0,.06.03.13.07.06.03.1.04.16.04s.16-.05.26-.15c.09-.09.13-.19.13-.27,0-.15-.13-.29-.37-.44l-.32-.15c-.09-.04-.18-.07-.26-.09-.45-.15-1-.29-1.6-.44l-.76-.15-.82-.15-.7-.21-.66-.17-.47-.13-.44-.11c-.32-.09-.59-.21-.82-.35-.41-.2-.82-.49-1.23-.89-.15-.13-.26-.32-.37-.56l-.06-.31-.16-.31-.1-.21-.07-.21-.1-.15-.07-.13c-.06-.12-.07-.21-.07-.31,0-.07,0-.16.06-.27l.1-.27.1-.24.1-.27c.06-.2.1-.37.1-.49,0-.2.03-.39.07-.55.06-.16.19-.33.37-.52l.1-.09.13-.13c.09-.09.15-.16.19-.21l.07-.11.03-.13.16-.21c.03-.07.12-.13.23-.17l.16-.07.16-.09s.06-.09.1-.15l.03-.11.07-.04s.09-.09.23-.15l.1-.04.1-.07c.06-.03.12-.09.19-.2l.19-.21.2-.21.23-.2.13-.09.19-.03c.16-.05.26-.11.34-.15.06-.05.1-.12.16-.2l.1-.11c.1-.09.19-.2.29-.28.06,0,.19-.07.34-.15l.19-.07.2-.11c.1-.09.22-.17.37-.27.16-.09.26-.16.32-.2l.2-.15c.1-.07.19-.12.29-.13l.32-.09.32-.04c.1,0,.19,0,.26.04h.19c.1,0,.16-.03.16-.09v-.13l-.06-.13c0-.07.06-.13.16-.17l.13-.04.16-.04c.28-.19.66-.33,1.16-.45.79-.19,1.39-.36,1.84-.52.06-.03.16-.07.29-.13l.34-.15c.29-.15.51-.21.63-.21l.29.04.34.03h.2c.1,0,.18,0,.2.03l.23.2h.47l.29-.04h.44l.16-.03c.12,0,.22,0,.29,0l.1.03.07.07.03.04.16-.07.16-.04c.06,0,.13.04.2.13l.07.09.1.09c.06.08.16.13.29.17l.32.15c.13.05.29.17.47.32l.2.21c.09.05.18.11.26.15.1.05.16.16.19.31,0,.09.03.21.1.37.09.16.15.39.19.68.06.27.07.47.07.63s-.04.35-.13.55l-.16.28-.1.28c-.1.32-.29.69-.56,1.13-.1.15-.25.29-.42.45l-.47.45c-.13.15-.34.31-.63.48l-.34.27-.29.24c-.98.73-1.98,1.08-2.99,1.08-.2,0-.47-.03-.76-.09l-.34-.07-.26-.04c-.51-.09-.76-.2-.76-.35,0-.09.06-.17.19-.24l.37-.13c.18-.07.4-.2.66-.37.22-.13.45-.29.7-.48l.66-.52c.35-.29.72-.67,1.1-1.13l.5-.61.47-.61.07-.09.07-.11.19-.24c.13-.21.2-.4.2-.55,0-.29-.19-.44-.57-.44-.1,0-.22,0-.34.04l-.22.05h-.16l-.4.07-.42.03c-.34.03-.6.08-.82.15-.64.24-1.19.4-1.6.49l-.37.09c-.13.04-.23.09-.34.13l-.26.15c-.13.05-.23.11-.34.15l-.13.03-.19.03c-.13.03-.2.07-.26.11-.15.15-.35.28-.63.41l-.7.35-.69.37c-.5.28-.92.56-1.29.83-.18.12-.38.28-.63.48l-.63.52-.69.55c-.2.19-.4.36-.56.52-.13.16-.23.35-.32.55-.13.2-.19.39-.19.56,0,.16.06.33.2.52.18.16.32.24.44.24l.16-.04h.13c.06,0,.16.03.26.07l.1.09.16.07c.06.04.19.07.34.07l.32.04c.06,0,.12,0,.19.04l.16.11c.09,0,.19.04.34.09l.37.07.1.03.13.03s.04.03.13,0h.2c.12,0,.34.07.66.2l.44.15.37.09.73.13c.29.03.53.08.7.15.19.03.42.11.7.21l.63.31c.25.11.48.32.73.65l.07.11.1.09c.09.09.15.15.19.17.06.11.13.24.19.41l.03.2.06.21c.09.35.13.68.13.97,0,.56-.16,1.12-.47,1.72-.31.51-1,1.14-2.08,1.89-.61.41-1.26.76-1.95,1.04l-.47.21-.44.17c-.35.15-.69.27-1,.35l-1.1.31c-.42.09-.81.16-1.13.2-.16.03-.41.04-.73.04h-.37l-.32.03h-.19l-.19.04c-.13,0-.23.03-.32.03l-.57-.07h.21Z"/>
    <path class="cls-2" d="m48.88,185.29c-1.01,0-1.8-.31-2.34-.91-.2-.24-.4-.55-.56-.89l-.07-.13-.03-.11.03-.13.07-.15c0-.09-.03-.2-.07-.32-.04-.17-.06-.29-.06-.37l.03-.15v-.2l-.03-.17-.06-.2c0-.05.03-.16.1-.31l.07-.2c.06-.12.1-.19.16-.21l.1-.11.16-.11c.03-.05.07-.15.13-.28l.16-.31.16-.44c0-.05.07-.12.19-.17l.06-.07.13-.09.06-.17.06-.15c0-.13.07-.23.19-.31l.2-.11.19-.11c.06-.07.12-.16.19-.27l.16-.2c.06-.09.12-.16.2-.21l.13-.07.13-.13.16-.15.13-.15.06-.09.03-.07.07-.07.1-.03c.06-.04.07-.07.07-.09s0-.05-.03-.07c-.06-.04-.07-.07-.07-.09,0-.05.04-.11.13-.15l.13-.07.07-.04.37-.31.2-.09.23-.09.07-.07.06-.07.19-.03.16-.04c.06,0,.12-.09.19-.27.06-.15.19-.28.44-.41l.37-.15.19-.09.19-.07c.42-.17.82-.27,1.19-.27s.61,0,.82.03c.29,0,.56.05.76.13.25.11.54.32.89.63.35.39.56.73.6,1.03l.03.41c0,.2,0,.43-.03.65-.04.12-.1.29-.19.52l-.13.27-.06.28-.32,1.04-.13.27-.19.27c-.13.16-.19.27-.19.32,0,.09.06.13.2.13.1,0,.25-.03.42-.07l.19-.07.13-.03c.18-.07.35-.17.56-.31l.53-.35.53-.37.47-.37c.35-.31.64-.57.89-.83l.06-.04.07-.11.23-.24c.12-.16.22-.24.29-.24.1,0,.16.04.19.13.06.08.07.17.07.31,0,.41-.07.77-.23,1.08-.18.49-.53.99-1.05,1.48-.83.73-1.7,1.21-2.55,1.45-.53.15-1.07.21-1.6.21l-.26-.03-.23-.04c-.09,0-.18.04-.23.13l-.2.17-.5.55-.42.52c-.41.39-.79.68-1.16.91-.91.61-1.86.91-2.84.91l.04.06Zm4.1-5.65c.09,0,.18-.07.26-.21l.1-.15.07-.15c.32-.56.61-1.17.83-1.82l.07-.2c0-.07.03-.15.03-.21,0-.16-.1-.24-.32-.24-.16,0-.31.04-.44.13-.13.05-.25.13-.37.21-.23.2-.41.48-.53.83-.12.29-.18.6-.18.91,0,.25.03.45.07.61.07.2.2.29.38.29h.03Zm-3.97,3.71l.16-.03c.13-.03.25-.07.34-.13l.2-.17.26-.15c.37-.2.73-.48,1.1-.83l.19-.2.23-.17c.13-.16.2-.31.2-.44,0-.07-.04-.15-.1-.24-.06-.05-.13-.13-.23-.21l-.29-.21c-.07-.07-.13-.16-.19-.27l-.16-.35-.03-.09-.03-.11c-.09-.09-.18-.13-.23-.13-.09,0-.19.05-.32.15l-.16.15c-.06.04-.09.09-.1.13l-.44.56-.44.59c-.13.16-.23.41-.34.73-.09.32-.13.6-.13.83,0,.39.12.56.37.56h.15v.04h-.01Z"/>
    <path class="cls-2" d="m58.31,185.16c-.53,0-.97-.16-1.33-.48-.18-.17-.34-.43-.47-.76-.13-.31-.19-.56-.19-.79,0-.27.06-.57.2-.93.1-.27.25-.56.42-.89l.44-.73c.16-.31.29-.55.4-.72l.07-.2.07-.17c.06-.15.13-.24.2-.31.32-.29.56-.53.73-.72.12-.16.29-.39.53-.69l.26-.37.23-.32.16-.15.16-.13c.12-.09.2-.19.26-.27l.1-.2.07-.15c.09-.12.19-.21.29-.31l.19-.09.19-.07.2-.13c.1-.03.19-.04.23-.04l.07.03h.06c.09,0,.16-.04.23-.13.06-.07.16-.11.26-.11.06,0,.18.05.32.17l.16.15.13.09c.16.13.26.24.34.32.12.13.19.27.19.39s-.04.25-.13.39l-.07.17-.1.2-.53.73c-.18.21-.4.49-.66.83l-.4.39-.37.39-.66.8c-.25.28-.45.53-.63.79l-.03.09-.1.13c-.1.15-.19.27-.26.37-.19.32-.31.56-.34.73,0,.13.07.2.23.2.09,0,.19-.05.32-.15l.16-.09.13-.09.44-.28c.2-.12.35-.21.44-.31l.16-.15c.06-.04.09-.07.13-.09l.07-.03.1-.04c.09,0,.13-.03.16-.07l.07-.11.07-.13.13-.11.19-.13s.04-.07.13-.13l.1-.11c.13-.13.23-.2.29-.2h.1l.07.04h.03l.06-.07c.06-.04.07-.09.07-.13l.03-.07.03-.09.06-.03.07-.04c.06,0,.12-.03.13-.04l.06-.07v-.07s0-.09.03-.13c.06-.07.16-.17.29-.31l.37-.31.26-.24.26-.28.19-.31c.1-.12.19-.21.26-.31.19-.17.42-.4.7-.69l.69-.76.13-.05.19-.11c.12-.09.19-.2.2-.28l.06-.15.07-.15.1-.15.13-.2.13-.11.13-.13c.12-.09.25-.15.37-.15l.16.07.1.09c.12.09.2.13.26.13s.12-.03.2-.07l.16-.03h.16c.09,0,.18,0,.26.04.06.04.13.09.2.15.19.17.29.39.29.65,0,.49-.28,1.05-.83,1.66l-.34.35-.29.32-.26.39-.26.37-.29.39-.34.35c-.28.31-.47.56-.57.73l-.26.39-.2.39c-.16.29-.23.56-.23.8,0,.2.09.31.26.31.12,0,.26-.04.44-.13l.2-.11.23-.13c.54-.35,1.1-.77,1.68-1.28,1.02-.89,2.01-1.8,2.91-2.72.03-.03.07-.08.13-.15l.1-.21c.12-.19.22-.28.29-.28.06,0,.07.04.07.13v.15c0,.11.03.25.1.44.03.11.06.21.06.32,0,.56-.1.97-.32,1.21-.63.83-1.62,1.8-2.99,2.9l-.83.69c-.32.29-.61.52-.89.68-.57.36-1.13.6-1.68.69-.19.03-.37.04-.53.04-.18,0-.32-.03-.44-.07l-.44-.21-.42-.21c-.28-.09-.5-.29-.63-.56-.13-.23-.2-.49-.23-.8v-.24l-.03-.2c-.04-.12-.1-.17-.19-.17-.1,0-.2.05-.29.17l-.19.2-.19.21c-.42.47-.92.91-1.49,1.32-.81.61-1.54.91-2.22.91l.13.04Z"/>
    <path class="cls-2" d="m72.38,185.09c-.57,0-1.1-.23-1.58-.68-.47-.41-.78-.92-.92-1.52-.06-.25-.1-.53-.1-.84,0-.24.03-.52.07-.83l.06-.39.07-.44.16-.45.2-.31c.06-.09.1-.2.16-.37l.03-.17.07-.15.4-.83.23-.41.26-.41c.19-.35.34-.61.44-.83.06-.2.19-.43.4-.68.13-.19.26-.41.37-.69.06-.13.15-.29.29-.48l.16-.2.19-.21.07-.2.1-.24c.06-.19.13-.32.2-.39l.23-.31c.09-.09.18-.17.26-.24l.1-.11.16-.09.07-.13.07-.17.06-.07.06-.04s.06-.04.07-.04l.1.03h.07l.1-.03.07-.07c.12-.09.19-.17.19-.24,0-.03-.01-.07-.03-.11l-.06-.03v-.13l.07-.11c.06-.09.13-.2.23-.31l.26-.31.37-.37.4-.35.37-.32.34-.35.32-.39.34-.37c.1-.07.22-.15.37-.21l.37-.17.16-.09.19-.13s.09-.07.2-.17c.06-.05.1-.11.16-.15.09-.09.19-.16.29-.21.06-.04.15-.12.29-.21.18-.09.29-.16.34-.17l.44-.27.44-.2c.32-.17.64-.27,1-.27.63,0,1.13.23,1.49.68.28.35.42.69.42,1.03s-.07.68-.23,1.08c-.09.29-.23.63-.44,1.03-.26.51-.6,1.04-1.02,1.58-.13.17-.32.41-.57.72l-.63.72c-.54.65-1.42,1.58-2.62,2.8l-.7.69c-.26.27-.5.48-.69.65-.23.17-.5.39-.82.63l-.86.61-.82.61c-.32.24-.6.43-.86.56l-.42.21-.44.2c-.16.13-.29.33-.4.61l-.1.35-.06.37-.03.27-.06.28c0,.25.06.45.19.61.16.19.32.28.53.28l.29-.04.32-.09c.26-.07.57-.2.92-.41l.4-.27.42-.27c.44-.27.95-.68,1.58-1.24l1.33-1.14c.48-.47.92-.88,1.29-1.26l.26-.32c.12-.12.22-.21.32-.31.09-.04.15-.07.19-.07.06,0,.1.03.16.09.01.08.03.15.03.21,0,.13-.04.28-.1.45l-.07.21-.06.21-.13.44-.1.39c-.07.25-.23.49-.47.76l-.34.32-.32.35c-.51.47-1.01.92-1.52,1.37-1.08.96-2.15,1.69-3.18,2.2-.66.31-1.29.45-1.92.45l.04.03Zm1.82-7.27c.1,0,.31-.12.6-.37l.13-.15.16-.13c.12-.09.19-.16.19-.17.53-.39,1.16-.97,1.89-1.73l.83-.89c.35-.35.61-.65.82-.91l.89-1.08.92-1.07c.32-.35.6-.72.86-1.13l.23-.24.19-.28c.13-.21.2-.4.2-.56,0-.15-.07-.21-.2-.21-.18,0-.44.15-.79.44-.13.08-.23.17-.32.31l-.16.11s-.04.08-.07.09l-.37.44c-.15.19-.29.33-.44.44l-.2.17-.26.2c-.2.15-.37.27-.47.37l-.42.45-.37.45c-.16.16-.28.29-.37.39-.04.09-.1.16-.2.21l-.26.21c-.1.08-.19.2-.26.39l-.1.21-.16.17c-.09.15-.22.32-.4.49l-.44.48c-.19.24-.44.56-.7.97l-.29.49-.32.48-.06.07-.07.09-.1.21c-.13.21-.19.37-.19.45-.03.08.01.12.09.12v.02Z"/>
    <path class="cls-2" d="m92.53,186.63c-.54,0-1.1-.09-1.65-.27-.83-.24-1.41-.52-1.71-.87l-.29-.31-.26-.31c-.19-.23-.35-.44-.47-.65l-.23-.31-.2-.28c-.18-.24-.28-.48-.29-.69-.16-.85-.23-1.49-.23-1.9,0-.24.04-.47.13-.65.09-.2.13-.47.13-.8v-.17l-.03-.15c0-.12,0-.23.03-.32l.23-.65.2-.68.16-.37.13-.37c.09-.2.2-.37.37-.49.12-.09.25-.24.37-.41l.26-.45.06-.17.06-.2c.06-.16.1-.27.16-.32l.07-.09.1-.13c.1-.09.16-.16.19-.21.12-.21.29-.4.53-.56.19-.17.34-.36.44-.56l.19-.31.13-.27c.12-.21.26-.4.44-.56l.34-.21c.12-.09.22-.17.29-.24l.07-.15.07-.11c.06-.13.13-.24.2-.32.1-.12.28-.24.53-.39.2-.12.42-.27.63-.48l.5-.52c.42-.44.82-.75,1.19-.91.25-.09.51-.25.79-.45l.32-.28.34-.28c.18-.16.45-.33.83-.52l.44-.2.5-.2c1.46-.72,2.72-1.16,3.75-1.3.19-.03.38-.04.57-.04.42,0,.92.07,1.49.2l.42.09.42.07c.18,0,.28.04.32.09.06,0,.13.12.26.31.1.13.28.25.53.37l.29.13c.12.05.2.12.26.2.19.19.35.44.47.73l.13.39.12.37c.06.12.07.27.07.45v.8c.01.11.01.19,0,.24l-.07.24-.07.2c-.06.16-.07.29-.07.39v.24l.06.15c.01.13.03.25.03.35,0,.31-.06.67-.16,1.07l-.1.32-.13.31c-.1.28-.19.52-.23.72-.01.17-.13.43-.34.76l-.2.39-.16.37c-.07.27-.2.56-.4.89l-.29.41-.32.39-.73,1.17c-.26.45-.54.8-.82,1.07l-.42.52c-.18.21-.32.39-.44.52-.16.12-.32.29-.5.52l-.2.27-.26.28c-.81.91-1.7,1.73-2.65,2.49-.51.44-1.14.84-1.92,1.2l-.44.21-.44.27c-.34.21-.63.36-.86.44-.31.13-.66.23-1.08.28l-1.1.17c-.32.04-.59.05-.82.05l-.03-.02Zm-.19-2.37c.56,0,1.14-.11,1.73-.32.44-.19.79-.39,1.08-.59.06-.04.12-.08.19-.11.1-.04.22-.09.34-.13.09,0,.15-.05.19-.13v-.11l-.06-.09c0-.07.09-.15.29-.21.25-.09.41-.16.5-.24l.1-.13.03-.09c.06-.03.13-.05.23-.07.37-.13.66-.31.86-.52l.19-.21.19-.24c.18-.2.32-.35.44-.45.28-.19.59-.47.92-.83l.42-.45.44-.44c.83-.83,1.38-1.57,1.62-2.25.09-.27.28-.59.57-.97l.37-.45.34-.45c.06-.12.13-.27.2-.44l.16-.45c.13-.36.29-.64.47-.83.1-.09.22-.33.37-.72l.1-.35.13-.31c.06-.2.1-.39.1-.55v-.44c-.04-.2-.06-.36-.06-.48,0-.16.01-.4.06-.72v-.32l.03-.37c0-.79-.38-1.2-1.13-1.2-.25,0-.54.04-.86.11-.54.13-1.23.44-2.05.91l-.32.15-.29.11c-.25.11-.44.21-.56.35l-.26.24-.2.24c-.19.2-.35.36-.47.45-.47.39-1.01.83-1.62,1.34-.13.13-.29.29-.5.49-.15.16-.28.33-.42.52l-.13.31-.16.28c-.01.08-.06.12-.13.15l-.1.07-.07.04-.07.11-.04.12s-.09.05-.16.07l-.16.09c-.06.08-.09.17-.1.28v.13l-.03.15-.19.31-.16.31-.2.52c-.09.16-.2.24-.37.24s-.34-.04-.53-.13c-.19-.07-.35-.11-.47-.11-.18,0-.32.09-.44.27-.7.91-1.21,1.8-1.55,2.65-.31.65-.48,1.17-.56,1.54l-.07.41-.06.41-.1.45c-.06.17-.07.32-.07.45,0,1.25.32,2.05.95,2.41.28.16.66.24,1.13.24l-.02-.02Z"/>
    <path class="cls-2" d="m102.45,194.25c-.28-.03-.57-.17-.89-.44-.28-.2-.5-.41-.66-.63-.16-.25-.26-.6-.34-1.04-.01-.16-.03-.33-.03-.52v-.32c0-.53.18-1.24.5-2.1.34-.83.64-1.49.92-2.02l.26-.44c.16-.17.23-.28.23-.32l.03-.15.03-.13s.03-.08.07-.11l.07-.04.03-.09c.09-.09.18-.21.23-.39l.07-.21.07-.2.29-.45.29-.41.26-.45.29-.44.34-.52.37-.48.13-.2c.09-.09.13-.16.13-.21l.03-.09v-.09c.01-.09.04-.16.07-.21.12-.24.29-.49.53-.73.06-.09.12-.29.13-.56v-.28l-.03-.35c0-.05.03-.15.07-.27.01-.13.03-.23.06-.28.09-.15.18-.25.26-.32.16-.13.32-.23.53-.28l.19-.07h.19c.12,0,.2-.03.26-.07.09-.03.15-.08.19-.15.01-.05.07-.13.19-.24l.1-.11.07-.11c.12-.12.19-.23.2-.35.03-.13.09-.25.19-.37l.16-.21.16-.24c.09-.23.19-.39.29-.45.06-.07.09-.12.13-.13h.13s.06.04.06.13v.39c.03.08.07.11.13.11.13,0,.2-.09.2-.27,0-.09-.01-.2-.03-.37l-.06-.15v-.13c0-.05.03-.13.07-.21l.1-.09.07-.11.1-.2.1-.17c.09-.13.19-.23.34-.31l.34-.21.29-.21s.04-.09.07-.13v-.04l.03-.07.16-.13.03-.09.06-.09.2-.31c.12-.09.19-.2.23-.28l.06-.15c.03-.05.06-.11.06-.15,0,0-.01-.05-.06-.13l-.03-.04-.03-.11c0-.07.06-.16.2-.27l.34-.28.1-.21.07-.24c.09-.16.19-.29.29-.39l.19-.2.2-.21c.18-.13.32-.2.44-.24l.07.04h.03l.07-.04v-.11l-.03-.11s.06-.11.19-.24l.1-.15.07-.17c.06-.17.13-.29.2-.35.06-.07.19-.17.37-.32l.19-.15.19-.2c.22-.24.45-.37.69-.37.19,0,.38.07.56.2.13.08.29.2.44.37.19.2.29.44.29.69,0,.31-.13.67-.37,1.07-.18.27-.41.59-.7.96l-.73.91c-.38.52-.83,1.13-1.36,1.82l-.63.89-.66.85-.7.89c-.26.35-.47.63-.63.85-.07.11-.18.24-.32.41l-.16.15-.19.17-.26.45-.29.45-.23.31-.2.35-.19.17-.19.21c-.1.16-.18.32-.19.48v.73c.01.16.03.29.03.39.06.21.16.32.32.32.06,0,.18-.03.32-.07.48-.19,1.16-.55,1.99-1.07.19-.13.42-.29.7-.48.2-.16.42-.32.63-.48.13-.12.29-.27.44-.44l.19-.21.2-.2c.53-.49.97-.96,1.33-1.38l.06-.09.13-.11c.09-.09.16-.13.23-.13.1,0,.19.11.26.37l.13.27c.03.11.06.19.06.27,0,.51-.31,1.09-.92,1.76-.6.65-1.17,1.22-1.73,1.72-.72.61-1.39,1.08-2.02,1.41-.28.12-.67.28-1.16.48l-.26.13-.23.09c-.23.11-.4.19-.5.27-.07.08-.12.16-.13.27l-.06.27c-.01.2-.06.44-.1.72l-.13.68c-.42,1.84-.94,3.25-1.52,4.25-.28.48-.69,1.05-1.2,1.73-.6.73-1.17,1.24-1.71,1.49-.6.31-1.16.45-1.71.45l-.28-.07h.1Zm.63-2.19c.07,0,.18-.04.29-.13l.26-.17c.48-.44.92-.88,1.29-1.34.48-.64.88-1.32,1.19-2.02.38-1,.66-1.76.82-2.28.06-.28.15-.67.23-1.17l.06-.32.07-.35c0-.05-.01-.13-.06-.24l-.03-.15v-.39c0-.19-.06-.28-.19-.28-.07,0-.16.09-.26.28l-.1.17-.07.21c-.07.19-.13.31-.16.35-.01.03-.07.12-.19.27l-.1.21-.13.21c-.28.41-.48.76-.6,1.04l-.19.48c-.07.2-.15.37-.2.49l-.34.41-.34.45c-.07.09-.13.24-.19.41l-.13.41-.13.21-.1.21c-.13.16-.19.31-.2.44l-.16.41-.19.45c-.13.37-.23.68-.29.89v.09l-.03.15c-.03.09-.06.2-.06.28,0,.09.03.17.07.24l.07.04h.1v.04Z"/>
    <path class="cls-2" d="m128.69,186.47l-.23-.07-.2-.04-.19.04-.19.03c-.07,0-.16,0-.26-.03-.1-.03-.19-.04-.26-.04l-.32.04h-.32c-.25,0-.47-.03-.66-.09l-.29-.11-.29-.09c-.25-.08-.44-.15-.57-.24s-.23-.2-.32-.35l-.1-.17-.16-.17-.07-.15-.1-.15c-.13-.13-.25-.2-.37-.2-.16,0-.31.08-.42.24l-.13.21-.1.2-.07.11-.1.15c-.09.15-.15.24-.19.31-.16.17-.37.27-.63.27-.16,0-.34-.08-.53-.21l-.26-.2-.26-.17c-.37-.31-.57-.53-.57-.68-.06-.15-.07-.27-.07-.39,0-.29.09-.61.26-.96l.26-.45.26-.44.29-.55.32-.55c.28-.44.53-.79.76-1.04l.37-.37.29-.31c.26-.27.47-.51.63-.73.06-.12.1-.21.1-.31v-.09l-.03-.07.03-.09.07-.09.15-.03.19-.07c.06-.04.13-.12.23-.21l.2-.2.06-.04.03-.07.16-.17c.13-.15.2-.24.2-.31,0-.04-.03-.07-.07-.07-.09,0-.18.08-.26.21l-.13.17-.1.2c-.09.12-.15.17-.19.17-.06,0-.07-.03-.07-.07,0-.05.04-.16.13-.31l.13-.15.06-.09c.28-.39.63-.71,1.08-.93.06-.04.12-.09.16-.15l.13-.2c.03-.05.09-.11.16-.15l.2-.13.07-.04.07-.07c.06-.05.07-.13.07-.24,0-.15.09-.29.26-.45l.2-.21.19-.2.47-.45.5-.48c.09-.13.19-.29.29-.49l.16-.24.13-.24c.1-.15.25-.29.42-.45l.44-.37c.13-.13.28-.27.42-.44l.37-.44c.29-.36.59-.61.86-.79.29-.16.54-.24.73-.24.18,0,.38.08.63.21.26.12.45.25.57.41.1.13.16.33.16.61,0,.53-.13.96-.37,1.26l-.37.44-.42.39c-.34.35-.57.63-.73.85-.18.24-.44.53-.76.91l-.79.93-.4.45-.42.45c-.26.36-.51.69-.73,1-.5.73-.97,1.34-1.45,1.82-.38.44-.82,1.03-1.29,1.78l-.13.21-.16.15c-.13.16-.2.29-.26.39l-.1.17-.1.2c-.1.16-.16.29-.16.39s.06.17.16.24l.26.13.2.13.26.09.19.07.19.04c.13.08.26.11.37.11h.16l.13.03c.16,0,.29-.03.42-.07l.29-.09.29-.03.29-.07.32-.04.37-.11.37-.13c.92-.35,1.76-.73,2.49-1.14.32-.19.66-.41,1.05-.68l.95-.73.97-.73c.37-.27.67-.53.92-.79l.86-.91.89-.96c.64-.71,1.13-1.37,1.45-2.02l.26-.48.26-.52c.09-.21.13-.49.13-.83,0-.09.03-.2.1-.31l.07-.09.06-.13c0-.12.03-.24.06-.37l.09-.2c.06-.2.12-.36.13-.48l.06-.44c0-.55-.18-1.09-.5-1.65-.38-.71-.94-1.16-1.65-1.37-1.04-.29-2.02-.44-2.94-.44-.72,0-1.71.11-2.97.31-.44.09-.97.24-1.58.44l-.76.28-.79.27c-1.35.45-2.33.84-2.94,1.17-.5.27-.91.52-1.26.79l-.23.2-.23.24c-.18.17-.26.35-.26.52,0,.12.09.27.26.45.13.16.2.29.2.39,0,.11-.04.2-.1.28-.07.08-.15.11-.23.11s-.2-.05-.37-.15l-.37-.21c-.86-.57-1.29-1.16-1.29-1.73,0-.12,0-.24.03-.39.1-.35.29-.68.57-1l.19-.28.2-.28c.18-.2.32-.35.47-.45l.16-.09.1-.09c.12-.09.22-.13.29-.15.28-.09.42-.13.42-.15l.26-.2.2-.2c.06-.04.16-.09.26-.15l.1-.07.16-.09.1-.07c.06-.03.09-.04.1-.04l.07.04.07.03.07-.03.03-.09c.06-.07.1-.11.16-.11l.06.04h.07l.16-.04.13-.04.26-.2.26-.15.19-.09.19-.13c.16-.09.29-.17.42-.21l.26-.09.23-.07c.4-.13.66-.2.79-.2h.2l.26.03c.1,0,.19-.03.29-.09l.16-.13.16-.09.13-.07.16-.03c.06-.04.19-.07.37-.07l.37-.07c.85-.16,1.84-.27,2.99-.31l.37-.03.37-.04.13.04.19.04c.13.08.26.11.4.11.12,0,.25-.03.37-.11l.13-.03.1-.03c.06,0,.16,0,.32.04l.23.04.26.07c.22.03.4.08.53.15l.26.11.26.15.4.21.34.29c.53.27.88.49,1.05.68.06.08.15.15.23.24l.32.2c.26.16.44.29.56.39.09.11.19.25.32.45l.34.48c.13.19.25.36.34.49l.13.31.19.28c.1.16.16.4.19.72v.73l.06.17.06.2c.06.15.07.27.07.37v.31l-.03.31s0,.12.03.24l.06.28c0,.08-.04.15-.13.24-.04.09-.06.15-.06.17s0,.08.03.15l.03.27c0,.16-.04.36-.13.61l-.1.31c-.04.11-.06.19-.07.24-.06.19-.18.43-.34.69l-.2.35-.19.32c-.1.24-.22.44-.34.61l-.03.13-.07.15c-.07.12-.15.2-.23.24-.25.2-.38.36-.42.45l-.16.28-.1.31-.19.24-.23.28-.07.11-.1.2c-.09.16-.16.24-.2.24h-.07v-.03l-.07-.04-.07.04s-.04.05-.06.11l-.32.44-.44.49-.5.45-.19.15-.23.11s-.04.09-.06.15l-.06.15s-.04.05-.07.07h-.19c-.09,0-.19.04-.29.13l-.2.21-.42.31c-.18.12-.31.23-.37.32-.15.15-.26.27-.37.37-.15.12-.28.21-.4.31l-.26.13-.26.09c-.19.08-.34.15-.44.24-.06.04-.09.09-.1.13l-.07.15c-.06.11-.18.19-.34.24-.13,0-.25.08-.37.17l-.19.13-.2.13-1.29.48-.44.21c-.19.09-.35.15-.47.17-.09,0-.18.03-.23.07l-.2.09c-.07.03-.18.05-.29.07h-.4l-.19.04-.2.04c-.16.04-.28.07-.37.07v.04l.03.02Z"/>
    <path class="cls-2" d="m145.79,185.22c-.63,0-1.17-.21-1.62-.65-.32-.31-.47-.73-.47-1.3v-.68c0-.21.03-.39.07-.52.06-.07.12-.17.2-.31l.29-.27c.06-.07.13-.16.23-.27l.16-.09.1-.11.19-.2c.06-.09.1-.16.1-.21l-.03-.09v-.03c-.06-.04-.07-.09-.07-.15,0-.03.09-.15.26-.35l.5-.61c.22-.21.42-.41.6-.59l.32-.2.34-.27.16-.21c.03-.07.07-.13.13-.17l.1-.13s.06-.05.06-.09c0,0-.06-.04-.19-.09l-.16-.03h-.5l-.19.03h-.13c-.25.04-.44.12-.56.24-.07.09-.18.2-.29.35l-.16.17-.13.15c-.42.51-.79.91-1.1,1.21l-.6.52-.57.49c-.25.2-.47.31-.69.31s-.41-.12-.57-.37c-.06-.09-.07-.2-.07-.31,0-.15.06-.29.19-.44l.23-.21.2-.17.56-.53.56-.59.37-.61.16-.15.1-.13c.1-.09.16-.2.16-.31v-.08l-.06-.13s.03-.08.07-.15l.1-.15c.1-.16.16-.35.16-.56l-.06-.21v-.24c0-.09,0-.19.06-.27l.1-.11.1-.09.13-.13.1-.13c.06-.03.13-.04.19-.04,0,0,.04,0,.07.03h.06l.07.03.1.04h.13l.13.09.26.21.2.11c.16.11.31.15.44.15.09,0,.19-.03.34-.09l.2-.07.37-.04h.16c.1,0,.19-.03.29-.07l.16-.07.19-.09h.34c.12,0,.25-.04.4-.13.18-.05.32-.09.44-.09.19,0,.37.08.53.21l.19.24.19.21.32.32.34.37c.25.29.37.56.37.8,0,.28-.15.61-.44,1-.25.31-.63.68-1.13,1.13l-.63.55c-.25.2-.45.39-.63.56-.35.39-.7.8-1.08,1.28l-.53.68-.06.15-.13.15c-.09.16-.13.28-.13.35,0,.15.06.21.2.21.28,0,.75-.17,1.42-.55.2-.12.44-.27.69-.44.1-.05.19-.11.26-.15l.07-.07.07-.03c.69-.44,1.58-1.17,2.72-2.2l1.36-1.34.29-.28c.1-.09.18-.17.2-.24.09-.09.15-.15.19-.15.1,0,.16.08.16.21v.52l.03.37v.32c0,.25-.09.47-.2.65-.15.21-.38.47-.7.76l-.37.39-.37.35c-.57.52-1.07.97-1.49,1.32-.63.52-1.2.97-1.73,1.32l-.32.17-.29.21c-.26.15-.48.27-.66.35-.69.39-1.45.55-2.25.56h.06Z"/>
    <path class="cls-2" d="m160.02,172.35c-.35,0-.64-.17-.89-.52-.23-.31-.34-.61-.34-.91,0-.81.5-1.46,1.49-1.97.45-.24.91-.37,1.36-.37.25,0,.45.15.66.44.18.24.26.49.26.76,0,.41-.18.83-.53,1.24-.19.24-.37.43-.53.56-.19.2-.38.36-.56.48-.31.2-.61.29-.94.29h.02Zm-6.79,12.85c-.38,0-.73-.07-1.05-.2-.25-.09-.51-.35-.79-.76-.26-.41-.4-.85-.4-1.28,0-.15,0-.32.06-.55l.07-.28.06-.21c0-.15.09-.28.2-.41l.19-.15.16-.21.07-.09.06-.13c.09-.09.13-.17.13-.24,0-.04-.04-.08-.13-.11-.04,0-.06-.04-.06-.09s0-.09.06-.15l.16-.11c.12-.13.25-.29.37-.49.19-.32.38-.56.57-.73.1-.09.19-.21.26-.35l.13-.21.1-.2.26-.32.23-.37.32-.44c.12-.17.22-.31.32-.39l.23-.17.19-.13c.19-.15.32-.25.4-.32l.07-.13.03-.13c.03-.05.09-.12.16-.17l.2-.15.16-.15.19-.2c.18-.13.32-.2.47-.2.09,0,.18.03.26.09l.19.15.26.17.23.2c.19.16.29.37.29.63,0,.2-.06.43-.19.68-.1.19-.25.41-.42.65l-.32.41-.34.45-.29.45c-.1.19-.22.35-.34.45l-.19.15-.16.2-.1.24-.1.21c-.07.09-.19.21-.37.37l-.19.17-.16.2-.32.41-.32.44c-.09.15-.19.37-.32.68-.1.29-.16.49-.16.59,0,.16.07.24.23.24.13,0,.38-.09.73-.28.12-.05.25-.12.37-.17l.13-.09.13-.11c.26-.17.57-.43.92-.76l.44-.39.42-.44c.51-.44,1.08-1.03,1.73-1.73l.44-.41.44-.48.37-.39.16-.15.1-.15c.1-.09.19-.15.26-.15.12,0,.2.11.26.31l.07.24v.21c0,.35-.07.71-.26,1.07-.16.32-.4.67-.7,1.03l-.44.45-.4.45-.89,1.04c-.13.11-.31.24-.53.41l-.5.41-.53.45-.56.45c-.42.35-.82.61-1.2.79-.5.23-1.07.36-1.64.36l.06.02Z"/>
    <path class="cls-2" d="m157.89,185.06c-.1,0-.18,0-.2-.03-.1-.04-.23-.11-.37-.2l-.16-.11-.16-.13c-.26-.19-.41-.44-.42-.76v-.24c0-.27.03-.47.1-.59l.07-.13.1-.09.03-.09v-.13c0-.07.03-.15.07-.24l.1-.21.07-.07.03-.09-.03-.09v-.07c0-.05.03-.12.07-.17l.1-.07.07-.07.13-.17.16-.21c.13-.27.32-.52.53-.73.09-.09.19-.2.32-.28l.16-.11.1-.13.07-.07.07-.04.03-.11v-.09s.06-.07.1-.09l.06-.04.07-.04.03-.13v-.13l.07-.04.03-.07.06-.09.03-.11.07-.15.16-.15c.09-.15.16-.25.2-.32l.03-.15.13-.15.06-.04.16-.04c.1-.04.16-.09.16-.15l-.06-.07v-.09s.03-.09.07-.15l.16-.13c.2-.23.4-.47.56-.69l.07-.2.03-.15c0-.16.06-.27.1-.32.06-.09.19-.17.34-.21.09-.03.18-.09.26-.2l.1-.15.07-.11c.06-.09.15-.16.23-.21.13-.09.28-.13.42-.13.13,0,.32.07.56.2.56.32.83.64.83.97,0,.08,0,.16-.03.27-.1.24-.26.51-.47.83l-.32.37-.29.39-.56.79s-.06.07-.1.15l-.19.17c-.06.19-.1.32-.1.39,0,.09.03.13.07.13.06,0,.16-.04.29-.13l.13-.11.03-.04.03-.03.42-.37.37-.37c.48-.47,1.01-.89,1.58-1.3l.82-.61c.32-.24.59-.44.83-.59l.4-.24c.16-.09.29-.15.42-.2l.23-.07.26-.04.2-.13.23-.09s.1-.07.2-.07c.19,0,.44.09.73.28.25.13.45.28.63.45.13.16.2.35.2.56,0,.13-.04.28-.1.44l-.13.17-.16.21-.6.76-.56.79c-.07.11-.2.27-.4.48l-.44.52-.26.45c-.09.19-.18.33-.26.44l-.2.31-.23.27c-.16.24-.28.44-.37.61l-.03.11-.07.11c0,.09-.03.16-.03.21,0,.16.09.24.29.24.12,0,.26-.03.44-.09l.2-.09.19-.09c.29-.15.61-.33.95-.56l.4-.31.4-.32c.83-.67,1.86-1.6,3.07-2.8l.34-.35.06-.09.07-.09.13-.09s.07-.04.13-.04.09.05.1.15v1.07c-.04.39-.12.67-.23.83-.16.24-.38.49-.69.8l-.4.39-.37.39-.72.77-.76.69c-.57.49-1.14.91-1.68,1.21-.45.27-.86.47-1.23.61-.53.2-1,.31-1.42.31s-.81-.09-1.13-.31c-.34-.2-.51-.4-.56-.61-.06-.12-.13-.25-.23-.41l-.1-.2-.1-.21c-.1-.17-.16-.36-.16-.56,0-.09,0-.21.03-.35.03-.12.07-.2.13-.24l.06-.07.07-.03s.06.03.07.09c0,.05.06.09.1.09.03,0,.07-.03.13-.07.03-.05.06-.12.06-.17,0-.03,0-.08-.03-.15v-.15c0-.09.03-.17.1-.24l.16-.07.1-.13c.12-.12.19-.24.19-.39,0-.04-.03-.11-.07-.2l-.03-.09-.06-.09c0-.12.06-.27.19-.44l.13-.17.13-.2c.06-.07.07-.13.07-.2,0-.09-.04-.13-.1-.13s-.12.03-.19.07c-.13.08-.28.19-.44.32l-.44.37-.76.69-.79.68-.82.73-.76.69c-.6.53-1.1,1.03-1.49,1.45l-.1.13-.1.15c-.13.15-.23.27-.34.35-.26.23-.48.33-.67.33l.11-.02Z"/>
    <path class="cls-2" d="m170.38,185.16c-.06,0-.15-.03-.26-.11l-.1-.13-.16-.09c-.16-.09-.28-.23-.37-.37-.16-.36-.23-.72-.23-1.07,0-.4.1-.79.32-1.17l.29-.55.32-.55c.25-.44.5-.77.76-1.03.12-.13.19-.23.23-.31.06-.2.13-.33.2-.41l.16-.21c.03-.05.07-.12.13-.2l.19-.11c.06-.05.12-.13.16-.21l.03-.2c0-.12,0-.2.06-.27,0-.03.04-.05.07-.09l.03-.11c.1-.13.19-.2.23-.21l.07-.04h.1c.06,0,.13,0,.19-.04l.07-.04.03-.07c0-.05,0-.09-.03-.09l-.06.04h-.03c-.06,0-.09-.03-.1-.07-.04-.03-.06-.05-.06-.09s.06-.11.16-.2c0,0,.06-.03.1-.07.06-.04.09-.07.1-.07.06,0,.09,0,.1.04l.07.03.06.04.06-.04.06-.07-.06-.15v-.17c0-.15.04-.24.13-.31l.1-.09s.04-.04.07-.04c.06,0,.07.03.07.07l-.03.16-.03.13s.03.07.07.07c.03,0,.06-.03.1-.11,0-.05.03-.12.03-.17,0-.04.03-.09.07-.13l.07-.03.03-.03c.06-.07.1-.16.1-.28l-.03-.24c0-.15.06-.27.19-.35.32-.27.53-.53.63-.76.06-.21.16-.37.26-.45l.13-.17c.09-.09.16-.15.23-.2l.2-.09.19-.13c.06-.04.13-.12.19-.24l.07-.15.07-.13.2-.41c.1-.17.2-.31.32-.41l.2-.2.19-.27c.18-.17.29-.33.37-.48l.07-.24.1-.21c.06-.19.16-.33.26-.45l.2-.21.23-.21c.2-.19.35-.33.44-.44.56-.71,1.08-1.24,1.55-1.58l.13-.09.16-.11c.19-.09.32-.2.37-.28l.19-.2.19-.24c.13-.16.26-.28.4-.37l.34-.31.37-.32c.32-.27.61-.39.89-.39.13,0,.29.04.47.11.47.2.7.51.7.91,0,.11-.03.24-.07.41l-.07.2-.03.21c0,.13-.06.27-.16.41l-.26.35c-.07.11-.15.25-.23.44-.06.09-.13.16-.2.21l-.2.21c-.1.11-.22.25-.34.45l-.19.24-.13.21-.42.44c-.15.16-.26.29-.37.41l-.26.44-.32.44c-.06.03-.13.08-.23.15l-.1.07-.1.11-.2.17-.19.21-.32.39c-.16.15-.28.27-.37.37l-.53.39-.47.41c-.73.73-1.33,1.36-1.79,1.9l-.37.45-.32.49c-.09.11-.23.24-.42.41l-.19.27-.19.2-.07.11v.09s.03.03.07.03.13-.03.23-.07c.09-.05.16-.11.23-.15.16-.09.32-.24.53-.41l.47-.49.41-.31.42-.32c.32-.24.61-.47.89-.65.79-.49,1.48-.73,2.09-.73.37,0,.7.09,1.02.28.42.2.69.45.82.76,0,.11.03.21.03.35v.91c0,.31-.13.61-.4.93l-.19.15-.19.2-.16.24-.07.21c-.16.31-.44.61-.83.91l-.56.39-.53.39-.5.35-.53.31-.57.17c-.28.05-.48.13-.6.21-.23.15-.34.32-.34.55l.06.15.03.21c.03.19.12.36.26.49.13.16.32.24.56.24.18,0,.38-.04.6-.13l.23-.11.26-.13c.37-.16.79-.4,1.26-.73.64-.47,1.36-1.07,2.15-1.82l.42-.44.44-.48c.37-.36.7-.64,1-.83l.1-.07.07-.09c.06-.05.15-.09.23-.09.06,0,.13,0,.19.04l.1.15c.06.12.07.24.07.35,0,.35-.04.6-.13.76-.15.31-.37.63-.69.96l-.42.45-.44.41-.47.49-.47.45c-.37.35-.7.64-1.02.89l-.5.37-.5.35c-.41.28-.78.49-1.1.65-.79.36-1.62.55-2.49.55-.28,0-.64-.11-1.1-.32-.44-.24-.81-.55-1.08-.89-.19-.27-.35-.57-.47-.96-.07-.17-.12-.36-.13-.56l-.06-.2v-.21c0-.16,0-.27-.03-.35-.06-.09-.1-.15-.16-.2-.07,0-.13-.03-.19-.03-.07,0-.16.03-.26.07-.07.05-.15.12-.2.2l-.44.48-.44.45c-.18.17-.42.49-.73.97l-.34.48c-.15.19-.28.35-.4.48,0,.03-.06.09-.1.17l-.16.17c-.15.2-.28.28-.4.28h.12Zm5.53-4.9c.13,0,.29-.03.47-.09.72-.31,1.29-.6,1.73-.89.22-.13.47-.33.73-.61l.37-.32.34-.35c.19-.17.38-.4.56-.69.19-.29.29-.49.29-.63,0-.15-.06-.21-.19-.21-.15,0-.35.09-.63.27-.09.04-.19.11-.29.2l-.19.15-.16.11-.19.11c-.13.11-.22.19-.29.27l-.2.27-.26.2-.26.28c-.1.09-.2.16-.29.21l-.16.07-.13.03c-.13.04-.23.09-.32.15l-.29.24-.26.28c-.25.25-.44.43-.57.52l-.16.15c-.06.05-.07.11-.07.15,0,.05.03.11.16.15.12.03.2.03.31.03l-.05-.05Z"/>
    <path class="cls-2" d="m184.79,185.36c-.34,0-.61-.04-.83-.11-.19-.03-.41-.13-.63-.31-.18-.12-.35-.25-.53-.41-.41-.39-.7-.85-.92-1.41,0-.05-.04-.15-.06-.28v-.31c-.04-.13-.09-.23-.16-.31l-.19-.11-.19-.13c-.13-.09-.19-.17-.19-.28,0-.12.06-.25.2-.41l.23-.21.2-.2c.42-.32.72-.57.92-.79.28-.24.59-.55.92-.89l.86-.93c.48-.53,1.05-1.11,1.68-1.72.48-.47.95-.89,1.42-1.28.06-.04.19-.12.37-.21l.19-.09.13-.09.19-.15.19-.13c.18-.09.32-.15.44-.15.1,0,.2.03.32.07l.13.09.1.07c.06,0,.13.04.23.07l.29.03c.48.13.73.49.73,1.11l-.03.31c-.13.83-.26,1.52-.42,2.06-.07.31-.19.68-.37,1.11l-.44,1.07c-.09.27-.25.61-.47,1.07l-.03.07-.06.09c-.04.09-.06.17-.06.24,0,.09.03.13.1.13.06,0,.12-.03.19-.07l.07-.03.06-.04c.37-.17.75-.41,1.13-.72l.47-.41.5-.41.26-.24.26-.27c.22-.21.4-.37.53-.48l.47-.39c.18-.17.32-.31.44-.41.12-.07.26-.2.44-.37l.1-.11.1-.13c.1-.12.19-.19.26-.21l.1-.03c.06,0,.13.03.19.09.06.04.07.09.07.15.03.19.06.35.06.45,0,.45-.32,1.03-.97,1.73-.47.56-1.1,1.14-1.89,1.78l-.56.45-.63.48c-.45.35-.89.64-1.29.89-.25.15-.57.29-.95.45l-.5.21-.47.21c-.19.09-.41.17-.63.24-.25.11-.47.19-.66.24-.51.17-1.02.27-1.48.27h.07Zm-.37-2.17c.16,0,.28-.03.37-.09.25-.15.48-.33.7-.59.1-.09.19-.23.29-.37l.13-.17.1-.15c.06-.09.13-.13.26-.15.03-.03.09-.07.19-.11.03-.03.06-.08.06-.15v-.12l-.03-.09c0-.07.06-.16.2-.27.16-.09.23-.17.23-.24,0,0,0-.04-.06-.09-.04-.04-.06-.07-.06-.09l.06-.27s0-.07-.06-.11c-.06-.05-.07-.11-.07-.15,0-.05.03-.15.07-.28l.06-.15.07-.15.1-.31.13-.31.03-.15.03-.13c.03-.09.09-.19.16-.27.06-.09.09-.16.1-.21,0-.09-.04-.13-.1-.13-.1,0-.23.05-.4.15l-.26.15-.23.15-.29.28-.25.32c-.18.16-.4.39-.66.69l-.66.69-.79.65c-.31.27-.44.49-.44.69s.04.43.13.69c.06.25.13.43.2.52.06.05.15.12.29.2.16.07.28.09.37.09l.03.03Z"/>
  </g>
</svg>